<?xml version="1.0" encoding="UTF-8"?>
<!DOCTYPE svg PUBLIC "-//W3C//DTD SVG 1.1//EN" "http://www.w3.org/Graphics/SVG/1.1/DTD/svg11.dtd">
<svg xmlns="http://www.w3.org/2000/svg" style="background: transparent; background-color: transparent; color-scheme: light dark;" xmlns:xlink="http://www.w3.org/1999/xlink" version="1.1" width="236px" height="244px" viewBox="0 0 236 244"><defs/><g><g data-cell-id="0"><g data-cell-id="1"><g data-cell-id="9sV2bMs7HBfwSSbRDa16-1"><g><path d="M 120.29 174.6 L 120.63 174.46 L 120.82 174.36 L 121.07 174.24 L 121.18 174.16 L 121.35 174 L 121.52 173.87 L 121.69 173.75 L 121.86 173.63 L 122 173.53 L 122.13 173.46 L 122.32 173.34 L 122.45 173.21 L 122.62 173.07 L 122.79 172.98 L 123 172.89 L 123.21 172.8 L 123.36 172.73 L 123.53 172.62 L 123.76 172.51 L 123.89 172.47 L 124.16 172.38 L 124.31 172.33 L 124.44 172.31 L 124.65 172.24 L 124.86 172.17 L 125.07 172.11 L 125.26 172.03 L 125.41 172.01 L 125.56 172.01 L 125.7 172 L 125.94 171.96 L 126.06 171.93 L 126.21 171.9 L 126.36 171.88 L 126.49 171.88 L 126.63 171.88 L 126.78 171.88 L 126.97 171.83 L 127.16 171.76 L 127.31 171.75 L 127.44 171.73 L 127.57 171.73 L 127.82 171.69 L 128.05 171.61 L 128.26 171.53 L 128.52 171.47 L 128.71 171.42 L 128.9 171.36 L 129.05 171.34 L 129.24 171.29 L 129.45 171.22 L 129.64 171.16 L 129.83 171.07 L 129.97 171.03 L 130.1 170.99 L 130.36 170.89 L 130.52 170.86 L 130.72 170.76 L 130.93 170.69 L 131.12 170.62 L 131.24 170.52 L 131.41 170.41 L 131.64 170.32 L 131.81 170.22 L 131.92 170.13 L 132.13 170.01 L 132.3 169.93 L 132.41 169.83 L 132.6 169.68 L 132.79 169.57 L 132.95 169.44 L 133.04 169.31 L 133.23 169.12 L 133.42 169.01 L 133.55 168.83 L 133.65 168.67 L 133.8 168.52 L 133.91 168.37 L 134.05 168.19 L 134.2 168 L 134.29 167.9 L 134.46 167.74 L 134.6 167.58 L 134.75 167.44 L 134.88 167.3 L 135.01 167.16 L 135.15 167.03 L 135.28 166.9 L 135.41 166.76 L 135.55 166.62 L 135.68 166.49 L 135.81 166.36 L 135.94 166.28 L 136.15 166.2 L 136.27 166.1 L 136.4 165.98 L 136.51 165.91 L 136.67 165.82 L 136.84 165.72 L 136.97 165.61 L 137.1 165.48 L 137.27 165.32 L 137.46 165.19 L 137.69 165.06 L 137.8 164.96 L 137.9 164.86 L 138.03 164.68 L 138.22 164.53 L 138.35 164.42 L 138.43 164.28 L 138.51 164.16 L 138.6 163.97 L 138.73 163.76 L 138.9 163.56 L 139.02 163.41 L 139.11 163.25 L 139.21 163.05 L 139.32 162.87 L 139.45 162.72 L 139.55 162.6 L 139.64 162.43 L 139.83 162.24 L 140.06 162.06 L 140.27 161.9 L 140.4 161.77 L 140.54 161.64 L 140.67 161.51 L 140.8 161.36 L 140.95 161.23 L 141.07 161.16 L 141.18 161.05 L 141.3 160.92 L 141.41 160.82 L 141.56 160.75 L 141.77 160.64 L 141.88 160.55 L 142.02 160.41 L 142.15 160.34 L 142.32 160.25 L 142.53 160.16 L 142.74 160.09 L 142.89 160.02 L 143.04 159.92 L 143.23 159.8 L 143.48 159.73 L 143.69 159.68 L 143.88 159.62 L 144.09 159.55 L 144.28 159.49 L 144.54 159.42 L 144.73 159.32 L 144.96 159.22 L 145.11 159.2 L 145.3 159.14 L 145.49 159.08 L 145.7 159.01 L 145.85 158.94 L 146.06 158.85 L 146.23 158.76 L 146.38 158.67 L 146.61 158.58 L 146.76 158.48 L 146.93 158.41 L 147.05 158.29 L 147.18 158.16 L 147.31 158.08 L 147.46 158 L 147.69 157.9 L 147.79 157.81 L 147.92 157.69 L 148.11 157.54 L 148.22 157.45 L 148.36 157.38 L 148.53 157.27 L 148.7 157.16 L 148.91 157.03 L 149.08 156.93 L 149.3 156.82 L 149.55 156.76 L 149.74 156.72 L 149.95 156.66 L 150.16 156.58 L 150.25 156.5 L 150.48 156.39 L 150.63 156.37 L 150.82 156.31 L 151.01 156.24 L 151.15 156.19 L 151.28 156.15 L 151.54 156.06 L 151.81 155.95 L 151.94 155.9 L 152.09 155.85 L 152.3 155.79 L 152.42 155.7 L 152.64 155.59 L 152.85 155.52 L 152.95 155.42 L 153.16 155.3 L 153.31 155.25 L 153.5 155.14 L 153.71 155.04 L 153.84 154.98 L 154.03 154.87 L 154.16 154.76 L 154.37 154.6 L 154.56 154.47 L 154.71 154.35 L 154.9 154.21 L 155.11 154.06 L 155.26 153.93 L 155.38 153.85 L 155.55 153.7 L 155.66 153.64 L 155.79 153.53 L 155.87 153.41 L 156.02 153.25 L 156.21 153.1 L 156.33 152.99 L 156.46 152.86 L 156.57 152.79 L 156.69 152.69 L 156.78 152.57 L 156.91 152.41 L 157.1 152.25 L 157.33 152.17 L 157.48 152.09 L 157.65 151.97 L 157.88 151.87 L 158.03 151.83 L 158.22 151.75 L 158.39 151.66 L 158.57 151.57 L 158.68 151.45 L 158.87 151.31 L 159.08 151.23 L 159.23 151.15 L 159.36 151.04 L 159.55 150.91 L 159.72 150.8 L 159.84 150.7 L 159.95 150.63 L 160.06 150.53 L 160.16 150.41 L 160.29 150.25 L 160.48 150.09 L 160.65 149.98 L 160.77 149.89 L 160.9 149.76 L 161.03 149.69 L 161.2 149.58 L 161.32 149.49 L 161.45 149.36 L 161.56 149.28 L 161.74 149.18 L 161.85 149.08 L 161.98 148.95 L 162.11 148.82 L 162.25 148.74 L 162.42 148.64 L 162.53 148.54 L 162.65 148.47 L 162.82 148.37 L 162.97 148.29 L 163.1 148.17 L 163.29 148.04 L 163.5 147.95 L 163.61 147.86 L 163.84 147.75 L 164.03 147.68 L 164.15 147.59 L 164.35 147.47 L 164.51 147.42 L 164.75 147.3 L 164.9 147.26 L 165.11 147.16 L 165.26 147.08 L 165.49 146.98 L 165.7 146.91 L 165.89 146.84 L 166.1 146.78 L 166.31 146.7 L 166.5 146.63 L 166.71 146.57 L 166.93 146.48 L 167.07 146.44 L 167.28 146.34 L 167.49 146.27 L 167.69 146.2 L 167.86 146.13 L 168.02 146.08 L 168.19 145.97 L 168.38 145.86 L 168.59 145.77 L 168.81 145.67 L 168.95 145.64 L 169.16 145.54 L 169.27 145.44 L 169.48 145.32 L 169.63 145.26 L 169.76 145.23 L 169.97 145.13 L 170.12 145.06 L 170.29 144.95 L 170.46 144.83 L 170.69 144.75 L 170.83 144.67 L 171 144.55 L 171.24 144.42 L 171.45 144.33 L 171.57 144.23 L 171.74 144.11 L 171.91 144.01 L 172.04 143.89 L 172.17 143.76 L 172.36 143.62 L 172.53 143.51 L 172.65 143.41 L 172.76 143.34 L 172.88 143.25 L 172.97 143.14 L 173.1 142.96 L 173.29 142.81 L 173.43 142.71 L 173.54 142.57 L 173.71 142.38 L 173.88 142.24 L 174.01 142.11 L 174.13 141.96 L 174.26 141.81 L 174.39 141.67 L 174.53 141.54 L 174.62 141.41 L 174.72 141.25 L 174.89 141.04 L 175.04 140.81 L 175.15 140.63 L 175.27 140.45 L 175.4 140.25 L 175.55 139.99 L 175.63 139.87 L 175.72 139.74 L 175.84 139.55 L 175.93 139.34 L 176.01 139.21 L 176.14 139.01 L 176.25 138.86 L 176.35 138.7 L 176.44 138.5 L 176.52 138.34 L 176.61 138.13 L 176.67 138 L 176.78 137.8 L 176.88 137.62 L 177.03 137.44 L 177.11 137.27 L 177.24 137.04 L 177.33 136.91 L 177.45 136.72 L 177.56 136.55 L 177.7 136.36 L 177.83 136.21 L 177.96 136.08 L 178.06 135.92 L 178.17 135.76 L 178.28 135.67 L 178.45 135.56 L 178.57 135.46 L 178.7 135.27 L 178.8 135.17 L 179 135.02 L 179.14 134.84 L 179.25 134.69 L 179.38 134.53 L 179.54 134.37 L 179.65 134.29 L 179.78 134.13 L 179.92 133.99 L 180.07 133.85 L 180.2 133.71 L 180.33 133.58 L 180.47 133.44 L 180.6 133.31 L 180.73 133.17 L 180.85 133.03 L 180.96 132.93 L 181.04 132.83 L 181.17 132.69 L 181.28 132.56 L 181.4 132.45 L 181.55 132.26 L 181.68 132.11 L 181.81 131.96 L 181.95 131.83 L 182.08 131.7 L 182.21 131.55 L 182.35 131.42 L 182.5 131.29 L 182.69 131.13 L 182.82 131.06 L 183.03 130.92 L 183.22 130.75 L 183.43 130.6 L 183.6 130.47 L 183.69 130.38 L 183.88 130.24 L 184 130.17 L 184.19 130.05 L 184.36 129.92 L 184.47 129.84 L 184.64 129.67 L 184.79 129.54 L 184.93 129.4 L 185.06 129.26 L 185.25 129.1 L 185.46 128.9 L 185.57 128.78 L 185.67 128.67 L 185.78 128.56 L 185.93 128.4 L 186.06 128.26 L 186.2 128.12 L 186.33 127.99 L 186.5 127.84 L 186.71 127.7 L 186.88 127.57 L 187.01 127.45 L 187.2 127.3 L 187.37 127.2 L 187.51 127.09 L 187.6 127 L 187.81 126.84 L 188.02 126.69 L 188.17 126.56 L 188.29 126.46 L 188.46 126.33 L 188.57 126.26 L 188.78 126.13 L 188.91 126.04 L 189.04 125.95 L 189.14 125.85 L 189.35 125.69 L 189.58 125.61 L 189.75 125.53 L 189.97 125.38 L 190.11 125.31 L 190.33 125.18 L 190.51 125.09 L 190.71 125 L 190.89 124.9 L 191 124.81 L 191.19 124.69 L 191.34 124.63 L 191.47 124.59 L 191.68 124.49 L 191.85 124.42 L 192 124.31 L 192.14 124.21 L 192.33 124.06 L 192.54 123.98 L 192.71 123.88 L 192.93 123.73 L 193.14 123.58 L 193.31 123.49 L 193.54 123.38 L 193.66 123.28 L 193.79 123.16 L 194.04 123.02 L 194.23 122.9 L 194.43 122.78 L 194.62 122.65 L 194.76 122.51 L 194.91 122.38 L 195.1 122.24 L 195.25 122.11 L 195.36 121.96 L 195.55 121.78 L 195.72 121.67 L 195.84 121.57 L 195.97 121.43 L 196.1 121.36 L 196.27 121.27 L 196.39 121.16 L 196.54 121.02 L 196.64 120.93 L 196.86 120.8 L 197.09 120.71 L 197.24 120.64 L 197.45 120.54 L 197.66 120.47 L 197.87 120.4 L 198.02 120.32 L 198.17 120.23 L 198.4 120.14 L 198.61 120.06 L 198.82 119.99 L 199.06 119.94 L 199.25 119.9 L 199.35 119.81 L 199.58 119.7 L 199.73 119.68 L 199.92 119.62 L 200.13 119.56 L 200.39 119.49 L 200.53 119.46 L 200.66 119.43 L 200.87 119.36 L 201.02 119.28 L 201.23 119.2 L 201.44 119.13 L 201.65 119.06 L 201.89 119 L 202.08 118.95 L 202.25 118.88 L 202.4 118.83 L 202.59 118.72 L 202.82 118.62 L 202.96 118.59 L 203.09 118.55 L 203.22 118.52 L 203.49 118.43 L 203.75 118.31 L 203.92 118.25 L 204.06 118.18 L 204.19 118.11 L 204.42 117.96 L 204.55 117.9 L 204.7 117.86 L 204.91 117.76 L 205.06 117.68 L 205.23 117.58 L 205.4 117.46 L 205.57 117.35 L 205.78 117.27 L 205.99 117.21 L 206.2 117.14 L 206.37 117.05 L 206.56 116.93 L 206.69 116.87 L 206.85 116.81 L 206.98 116.76 L 207.09 116.7 L 207.24 116.63 L 207.36 116.56 L 207.49 116.48 L 207.72 116.32 L 207.83 116.26 L 208 116.15 L 208.12 116.04 L 208.25 115.91 L 208.38 115.84 L 208.55 115.73 L 208.67 115.63 L 208.78 115.5 L 208.9 115.41 L 209.05 115.24 L 209.2 115.11 L 209.29 114.99 L 209.39 114.82 L 209.56 114.63 L 209.73 114.46 L 209.83 114.31 L 209.92 114.15 L 210.03 113.95 L 210.17 113.79 L 210.26 113.67 L 210.34 113.5 L 210.39 113.29 L 210.43 113.08 L 210.51 112.86 L 210.57 112.66 L 210.66 112.43 L 210.77 112.23 L 210.83 111.99 L 210.87 111.85 L 210.91 111.72 L 210.94 111.58 L 210.98 111.45 L 211.02 111.3 L 211.06 111.13 L 211.08 110.98 L 211.1 110.82 L 211.1 110.68 L 211.12 110.53 L 211.12 110.4 L 211.12 110.27 L 211.12 110.14 L 211.12 109.99 L 211.13 109.86 L 211.19 109.63 L 211.25 109.5 L 211.29 109.37 L 211.32 109.21 L 211.36 109.04 L 211.38 108.78 L 211.4 108.52 L 211.46 108.29 L 211.5 108.08 L 211.5 107.83 L 211.51 107.57 L 211.51 107.3 L 211.51 107.03 L 211.51 106.76 L 211.46 106.57 L 211.38 106.39 L 211.34 106.26 L 211.31 106.11 L 211.27 105.98 L 211.23 105.85 L 211.19 105.72 L 211.17 105.57 L 211.13 105.44 L 211.06 105.23 L 211 105.02 L 210.93 104.83 L 210.83 104.71 L 210.7 104.52 L 210.57 104.31 L 210.43 104.16 L 210.34 104.05 L 210.2 103.88 L 210.13 103.76 L 210.03 103.64 L 209.9 103.51 L 209.77 103.38 L 209.64 103.25 L 209.5 103.11 L 209.37 102.97 L 209.22 102.84 L 209.09 102.71 L 208.95 102.59 L 208.76 102.45 L 208.57 102.31 L 208.42 102.17 L 208.29 102.03 L 208.16 101.94 L 208 101.84 L 207.81 101.7 L 207.68 101.55 L 207.51 101.43 L 207.32 101.3 L 207.13 101.19 L 206.96 101.1 L 206.83 100.99 L 206.66 100.89 L 206.45 100.76 L 206.24 100.59 L 206.09 100.39 L 205.9 100.24 L 205.74 100.08 L 205.67 99.92 L 205.56 99.73 L 205.46 99.56 L 205.37 99.33 L 205.27 99.18 L 205.18 99.06 L 205.04 98.85 L 204.93 98.66 L 204.76 98.47 L 204.66 98.37 L 204.57 98.26 L 204.4 98.12 L 204.3 98.01 L 204.15 97.81 L 204.02 97.6 L 203.87 97.45 L 203.7 97.26 L 203.6 97.11 L 203.43 96.91 L 203.3 96.76 L 203.22 96.64 L 203.15 96.43 L 203.03 96.26 L 202.88 96.03 L 202.82 95.89 L 202.71 95.67 L 202.63 95.5 L 202.54 95.33 L 202.4 95.15 L 202.33 94.95 L 202.25 94.75 L 202.16 94.58 L 202.08 94.37 L 202.03 94.17 L 201.91 94.03 L 201.85 93.91 L 201.78 93.77 L 201.74 93.59 L 201.63 93.38 L 201.55 93.16 L 201.49 92.96 L 201.4 92.85 L 201.29 92.68 L 201.19 92.51 L 201.06 92.33 L 200.94 92.09 L 200.83 91.92 L 200.68 91.76 L 200.6 91.65 L 200.53 91.53 L 200.41 91.35 L 200.24 91.2 L 200.09 91.07 L 199.94 90.88 L 199.71 90.72 L 199.6 90.62 L 199.39 90.44 L 199.25 90.33 L 199.08 90.27 L 198.89 90.2 L 198.69 90.14 L 198.57 90.06 L 198.34 89.91 L 198.13 89.76 L 197.93 89.62 L 197.77 89.49 L 197.62 89.36 L 197.43 89.22 L 197.24 89.08 L 197.09 88.95 L 196.96 88.8 L 196.83 88.67 L 196.67 88.54 L 196.62 88.42 L 196.52 88.2 L 196.45 88.06 L 196.33 87.98 L 196.16 87.88 L 196.01 87.75 L 195.9 87.65 L 195.67 87.48 L 195.55 87.41 L 195.42 87.35 L 195.29 87.28 L 195.17 87.21 L 194.97 87.06 L 194.81 86.95 L 194.66 86.86 L 194.47 86.8 L 194.23 86.7 L 194.02 86.56 L 193.81 86.49 L 193.56 86.43 L 193.43 86.35 L 193.22 86.28 L 193.05 86.19 L 192.82 86.07 L 192.54 85.96 L 192.29 85.85 L 192.12 85.74 L 191.95 85.65 L 191.76 85.47 L 191.59 85.29 L 191.49 85.19 L 191.3 85.03 L 191.17 84.89 L 191.02 84.76 L 190.87 84.6 L 190.79 84.49 L 190.64 84.33 L 190.58 84.21 L 190.47 84.09 L 190.35 83.91 L 190.22 83.71 L 190.07 83.56 L 189.94 83.41 L 189.86 83.29 L 189.77 83.17 L 189.65 83.09 L 189.48 82.95 L 189.33 82.81 L 189.2 82.67 L 189.06 82.54 L 188.91 82.44 L 188.76 82.38 L 188.57 82.32 L 188.34 82.21 L 188.15 82.12 L 188 82.06 L 187.75 81.95 L 187.55 81.84 L 187.36 81.77 L 187.13 81.67 L 186.94 81.58 L 186.8 81.5 L 186.62 81.43 L 186.41 81.36 L 186.14 81.3 L 186.01 81.26 L 185.76 81.23 L 185.55 81.16 L 185.34 81.1 L 185.13 81.02 L 184.95 80.99 L 184.7 80.98 L 184.43 80.98 L 184.28 80.95 L 184.13 80.92 L 184 80.89 L 183.86 80.86 L 183.62 80.83 L 183.48 80.81 L 183.24 80.75 L 182.97 80.71 L 182.82 80.7 L 182.67 80.68 L 182.52 80.64 L 182.38 80.62 L 182.25 80.58 L 181.98 80.54 L 181.83 80.51 L 181.7 80.48 L 181.57 80.45 L 181.32 80.42 L 181.05 80.42 L 180.79 80.42 L 180.52 80.42 L 180.26 80.42 L 179.97 80.42 L 179.71 80.42 L 179.56 80.4 L 179.4 80.38 L 179.27 80.34 L 179.14 80.32 L 178.89 80.29 L 178.63 80.29 L 178.36 80.29 L 178.09 80.29 L 177.96 80.29 L 177.81 80.27 L 177.58 80.21 L 177.39 80.17 L 177.15 80.16 L 176.88 80.16 L 176.73 80.16 L 176.56 80.16 L 176.39 80.15 L 176.23 80.15 L 176.08 80.15 L 175.93 80.15 L 175.8 80.15 L 175.66 80.14 L 175.42 80.08 L 175.15 80.03 L 175 80.03 L 174.87 80.02 L 174.72 80.02 L 174.58 80.02 L 174.45 80.02 L 174.32 80.02 L 174.18 80.02 L 174.05 80.02 L 173.9 80 L 173.77 79.97 L 173.63 79.94 L 173.5 79.91 L 173.24 79.88 L 173.1 79.88 L 172.97 79.88 L 172.84 79.88 L 172.7 79.88 L 172.55 79.88 L 172.42 79.88 L 172.29 79.88 L 172.15 79.88 L 172.02 79.88 L 171.89 79.87 L 171.66 79.8 L 171.45 79.76 L 171.21 79.75 L 170.94 79.75 L 170.67 79.75 L 170.41 79.75 L 170.12 79.75 L 169.86 79.75 L 169.59 79.75 L 169.46 79.73 L 169.23 79.67 L 169.02 79.63 L 168.78 79.62 L 168.51 79.62 L 168.24 79.62 L 167.98 79.62 L 167.71 79.62 L 167.43 79.62 L 167.16 79.62 L 167.03 79.6 L 166.8 79.54 L 166.59 79.5 L 166.35 79.49 L 166.08 79.49 L 165.82 79.49 L 165.55 79.49 L 165.28 79.49 L 164.98 79.48 L 164.83 79.48 L 164.66 79.48 L 164.49 79.48 L 164.34 79.48 L 164.2 79.48 L 164.07 79.48 L 163.94 79.48 L 163.78 79.48 L 163.65 79.48 L 163.52 79.48 L 163.39 79.48 L 163.25 79.48 L 163.12 79.48 L 162.99 79.48 L 162.85 79.48 L 162.72 79.48 L 162.57 79.48 L 162.44 79.48 L 162.3 79.48 L 162.17 79.48 L 162.04 79.48 L 161.81 79.5 L 161.62 79.56 L 161.37 79.61 L 161.24 79.62 L 161.09 79.62 L 160.96 79.62 L 160.82 79.62 L 160.69 79.62 L 160.44 79.63 L 160.18 79.69 L 159.97 79.78 L 159.76 79.86 L 159.61 79.88 L 159.48 79.88 L 159.34 79.88 L 159.21 79.88 L 159.08 79.88 L 158.93 79.91 L 158.77 79.93 L 158.62 79.96 L 158.45 79.99 L 158.26 80 L 158.09 80 L 157.92 80 L 157.75 80 L 157.6 80.02 L 157.41 80.05 L 157.2 80.12 L 157.05 80.15 L 156.91 80.15 L 156.78 80.15 L 156.65 80.16 L 156.52 80.16 L 156.38 80.16 L 156.23 80.16 L 156.08 80.16 L 155.93 80.15 L 155.76 80.15 L 155.59 80.15 L 155.43 80.15 L 155.3 80.15 L 155.17 80.14 L 154.92 80.08 L 154.73 80.03 L 154.49 79.97 L 154.28 79.84 L 154.14 79.78 L 153.94 79.72 L 153.73 79.62 L 153.46 79.55 L 153.29 79.51 L 153.14 79.46 L 152.97 79.4 L 152.82 79.34 L 152.68 79.27 L 152.44 79.2 L 152.23 79.13 L 152.11 79.07 L 151.89 79 L 151.64 78.94 L 151.41 78.86 L 151.3 78.8 L 151.05 78.71 L 150.92 78.64 L 150.67 78.56 L 150.44 78.49 L 150.23 78.43 L 149.99 78.36 L 149.85 78.3 L 149.7 78.24 L 149.44 78.13 L 149.19 78.06 L 149.06 77.99 L 148.85 77.92 L 148.74 77.86 L 148.51 77.76 L 148.3 77.65 L 148.13 77.55 L 147.92 77.45 L 147.77 77.39 L 147.58 77.29 L 147.39 77.18 L 147.2 77.09 L 147.01 76.99 L 146.88 76.92 L 146.69 76.85 L 146.5 76.7 L 146.34 76.57 L 146.21 76.47 L 146.04 76.28 L 145.93 76.11 L 145.85 75.9 L 145.77 75.69 L 145.68 75.59 L 145.57 75.38 L 145.51 75.24 L 145.41 75.05 L 145.3 74.88 L 145.21 74.67 L 145.05 74.52 L 144.88 74.31 L 144.75 74.11 L 144.64 74.01 L 144.45 73.88 L 144.35 73.77 L 144.2 73.57 L 144.09 73.43 L 143.95 73.29 L 143.8 73.16 L 143.67 73.04 L 143.48 72.91 L 143.29 72.76 L 143.14 72.62 L 143.02 72.54 L 142.85 72.43 L 142.66 72.26 L 142.49 72.13 L 142.32 72.03 L 142.13 71.89 L 141.98 71.79 L 141.73 71.67 L 141.6 71.56 L 141.41 71.46 L 141.24 71.35 L 141.03 71.22 L 140.8 71.1 L 140.67 71.02 L 140.48 70.92 L 140.29 70.81 L 140.12 70.75 L 139.91 70.68 L 139.72 70.6 L 139.51 70.54 L 139.3 70.44 L 139.13 70.38 L 138.94 70.3 L 138.73 70.24 L 138.54 70.2 L 138.3 70.14 L 138.09 70.08 L 137.86 70.03 L 137.73 70 L 137.58 69.94 L 137.42 69.87 L 137.18 69.8 L 136.95 69.73 L 136.74 69.66 L 136.53 69.62 L 136.3 69.56 L 136.11 69.52 L 135.87 69.51 L 135.6 69.51 L 135.34 69.5 L 135.07 69.5 L 134.79 69.5 L 134.52 69.5 L 134.25 69.5 L 134.12 69.5 L 133.99 69.5 L 133.84 69.49 L 133.61 69.42 L 133.5 69.36 L 133.27 69.3 L 133.02 69.25 L 132.77 69.19 L 132.57 69.12 L 132.36 69.06 L 132.17 68.98 L 131.94 68.95 L 131.73 68.89 L 131.54 68.79 L 131.35 68.72 L 131.12 68.68 L 130.9 68.62 L 130.76 68.56 L 130.54 68.49 L 130.33 68.44 L 130.06 68.41 L 129.83 68.35 L 129.64 68.3 L 129.4 68.3 L 129.24 68.28 L 129.09 68.24 L 128.96 68.22 L 128.83 68.18 L 128.58 68.15 L 128.31 68.15 L 128.05 68.15 L 127.78 68.15 L 127.52 68.15 L 127.23 68.15 L 126.97 68.15 L 126.7 68.15 L 126.44 68.15 L 126.25 68.2 L 126.04 68.26 L 125.9 68.28 L 125.75 68.29 L 125.56 68.34 L 125.37 68.4 L 125.22 68.42 L 125.09 68.42 L 124.84 68.47 L 124.71 68.5 L 124.58 68.53 L 124.42 68.55 L 124.27 68.55 L 124.14 68.55 L 124.01 68.56 L 123.76 68.6 L 123.63 68.64 L 123.49 68.66 L 123.34 68.68 L 123.13 68.73 L 122.94 68.8 L 122.79 68.82 L 122.66 68.83 L 122.53 68.83 L 122.39 68.83 L 122.24 68.83 L 122.11 68.83 L 121.98 68.83 L 121.84 68.83 L 121.71 68.8 L 121.48 68.74 L 121.27 68.71 L 121.01 68.7 L 120.84 68.67 L 120.67 68.64 L 120.5 68.61 L 120.34 68.58 L 120.08 68.55 L 119.95 68.54 L 119.72 68.48 L 119.51 68.41 L 119.24 68.31 L 119.03 68.22 L 118.84 68.14 L 118.64 68.07 L 118.45 67.97 L 118.26 67.88 L 118.07 67.77 L 117.93 67.67 L 117.76 67.58 L 117.57 67.48 L 117.33 67.39 L 117.19 67.31 L 116.95 67.21 L 116.74 67.1 L 116.59 67 L 116.42 66.89 L 116.24 66.83 L 116.04 66.76 L 115.92 66.7 L 115.69 66.57 L 115.56 66.51 L 115.33 66.4 L 115.13 66.32 L 114.94 66.26 L 114.73 66.19 L 114.54 66.15 L 114.29 66.09 L 114.08 66.02 L 113.89 65.96 L 113.68 65.89 L 113.47 65.87 L 113.21 65.86 L 113.06 65.85 L 112.9 65.81 L 112.77 65.78 L 112.64 65.75 L 112.39 65.73 L 112.13 65.73 L 111.86 65.73 L 111.73 65.71 L 111.5 65.65 L 111.29 65.61 L 111.04 65.6 L 110.91 65.57 L 110.67 65.48 L 110.51 65.38 L 110.34 65.29 L 110.13 65.15 L 109.91 64.99 L 109.7 64.81 L 109.56 64.71 L 109.41 64.6 L 109.18 64.45 L 108.94 64.29 L 108.82 64.22 L 108.69 64.15 L 108.52 64.07 L 108.37 64 L 108.24 63.91 L 108.05 63.75 L 107.91 63.65 L 107.72 63.53 L 107.51 63.39 L 107.34 63.24 L 107.17 63.15 L 107.02 63.09 L 106.85 62.99 L 106.64 62.88 L 106.49 62.82 L 106.28 62.69 L 106.09 62.56 L 105.88 62.49 L 105.6 62.39 L 105.47 62.32 L 105.33 62.28 L 105.16 62.21 L 105.01 62.15 L 104.86 62.08 L 104.74 62.01 L 104.55 61.96 L 104.31 61.9 L 104.1 61.84 L 103.89 61.8 L 103.66 61.73 L 103.47 61.7 L 103.21 61.66 L 103.07 61.64 L 102.92 61.6 L 102.79 61.56 L 102.56 61.5 L 102.35 61.43 L 102.14 61.42 L 101.88 61.41 L 101.61 61.41 L 101.35 61.41 L 101.21 61.41 L 101.06 61.38 L 100.83 61.32 L 100.64 61.29 L 100.4 61.28 L 100.13 61.28 L 99.87 61.28 L 99.58 61.28 L 99.35 61.32 L 99.13 61.4 L 98.9 61.48 L 98.67 61.55 L 98.54 61.59 L 98.35 61.68 L 98.18 61.78 L 97.99 61.89 L 97.78 62.02 L 97.61 62.14 L 97.44 62.27 L 97.21 62.36 L 97.04 62.46 L 96.81 62.62 L 96.68 62.68 L 96.45 62.79 L 96.24 62.86 L 96.09 62.88 L 95.9 62.94 L 95.69 63 L 95.54 63.03 L 95.41 63.03 L 95.27 63.03 L 95.08 63.08 L 94.89 63.14 L 94.74 63.16 L 94.61 63.16 L 94.46 63.17 L 94.33 63.17 L 94.19 63.16 L 94.06 63.16 L 93.93 63.16 L 93.79 63.16 L 93.66 63.16 L 93.53 63.16 L 93.38 63.16 L 93.24 63.16 L 93.11 63.16 L 92.98 63.16 L 92.84 63.16 L 92.71 63.16 L 92.58 63.16 L 92.45 63.16 L 92.31 63.16 L 92.16 63.16 L 92.01 63.16 L 91.86 63.16 L 91.69 63.16 L 91.52 63.15 L 91.36 63.15 L 91.23 63.16 L 91.1 63.16 L 90.97 63.16 L 90.81 63.16 L 90.68 63.16 L 90.55 63.16 L 90.42 63.16 L 90.28 63.16 L 90.15 63.16 L 90.02 63.16 L 89.88 63.16 L 89.75 63.16 L 89.6 63.16 L 89.47 63.16 L 89.33 63.16 L 89.2 63.16 L 89.07 63.16 L 88.94 63.16 L 88.8 63.16 L 88.67 63.16 L 88.54 63.16 L 88.39 63.16 L 88.25 63.16 L 88.12 63.16 L 87.99 63.16 L 87.85 63.16 L 87.72 63.16 L 87.59 63.16 L 87.46 63.16 L 87.32 63.16 L 87.19 63.16 L 87.04 63.16 L 86.9 63.16 L 86.77 63.16 L 86.64 63.16 L 86.51 63.16 L 86.37 63.16 L 86.24 63.14 L 86.01 63.08 L 85.8 63.04 L 85.56 63.03 L 85.29 63.03 L 85.03 63.03 L 84.76 63.03 L 84.48 63.03 L 84.21 63.03 L 83.94 63.03 L 83.68 63.03 L 83.55 63.03 L 83.41 63.03 L 83.26 63.03 L 83.13 63.03 L 83 63.03 L 82.86 63.03 L 82.73 63.03 L 82.6 63.03 L 82.46 63.03 L 82.33 63.03 L 82.2 63.03 L 82.05 63.03 L 81.91 63.03 L 81.78 63.03 L 81.65 63.03 L 81.52 63.03 L 81.29 63.04 L 81.1 63.1 L 80.85 63.16 L 80.6 63.21 L 80.47 63.23 L 80.34 63.27 L 80.19 63.29 L 79.98 63.34 L 79.79 63.4 L 79.64 63.43 L 79.39 63.47 L 79.26 63.51 L 79.12 63.55 L 78.92 63.61 L 78.73 63.71 L 78.59 63.76 L 78.44 63.81 L 78.23 63.88 L 78.02 63.94 L 77.83 64.01 L 77.62 64.09 L 77.42 64.15 L 77.32 64.24 L 77.15 64.35 L 76.92 64.46 L 76.75 64.54 L 76.6 64.63 L 76.43 64.72 L 76.26 64.84 L 76.05 64.93 L 75.84 65 L 75.59 65.06 L 75.4 65.11 L 75.2 65.17 L 74.99 65.24 L 74.85 65.31 L 74.63 65.39 L 74.38 65.45 L 74.23 65.47 L 74 65.5 L 73.87 65.54 L 73.73 65.56 L 73.58 65.6 L 73.45 65.63 L 73.32 65.67 L 73.18 65.69 L 73.05 65.73 L 72.92 65.77 L 72.79 65.8 L 72.58 65.89 L 72.37 65.97 L 72.22 65.98 L 72.03 66.04 L 71.82 66.1 L 71.67 66.13 L 71.48 66.17 L 71.29 66.25 L 71.13 66.26 L 70.94 66.32 L 70.77 66.41 L 70.62 66.46 L 70.49 66.51 L 70.28 66.58 L 70.07 66.64 L 69.86 66.71 L 69.67 66.79 L 69.46 66.85 L 69.35 66.94 L 69.16 67.05 L 69.01 67.11 L 68.88 67.15 L 68.67 67.24 L 68.52 67.33 L 68.29 67.42 L 68.17 67.51 L 68.04 67.64 L 67.87 67.77 L 67.7 67.87 L 67.53 67.96 L 67.45 68.09 L 67.3 68.24 L 67.19 68.31 L 67.07 68.42 L 66.94 68.55 L 66.81 68.68 L 66.67 68.82 L 66.54 68.95 L 66.45 69.07 L 66.35 69.24 L 66.2 69.42 L 66.1 69.57 L 66.01 69.74 L 65.88 69.94 L 65.78 70.06 L 65.61 70.27 L 65.5 70.36 L 65.33 70.56 L 65.17 70.7 L 65.04 70.83 L 64.93 70.98 L 64.83 71.08 L 64.74 71.18 L 64.62 71.28 L 64.53 71.38 L 64.42 71.48 L 64.26 71.7 L 64.15 71.8 L 63.98 72.01 L 63.83 72.16 L 63.71 72.25 L 63.54 72.36 L 63.41 72.48 L 63.3 72.56 L 63.13 72.69 L 63.01 72.76 L 62.78 72.85 L 62.59 72.92 L 62.39 72.99 L 62.18 73.05 L 62.01 73.16 L 61.85 73.21 L 61.72 73.26 L 61.59 73.29 L 61.46 73.32 L 61.32 73.35 L 61.11 73.45 L 60.9 73.52 L 60.66 73.61 L 60.53 73.67 L 60.39 73.73 L 60.24 73.77 L 60.11 73.82 L 59.97 73.86 L 59.84 73.89 L 59.58 73.98 L 59.31 74.1 L 59.1 74.22 L 58.89 74.33 L 58.76 74.39 L 58.51 74.49 L 58.36 74.55 L 58.15 74.65 L 57.98 74.73 L 57.77 74.83 L 57.6 74.93 L 57.39 75.01 L 57.19 75.08 L 57 75.14 L 56.84 75.17 L 56.65 75.21 L 56.48 75.31 L 56.33 75.37 L 56.07 75.47 L 55.93 75.51 L 55.67 75.6 L 55.52 75.65 L 55.25 75.73 L 55.12 75.78 L 54.98 75.81 L 54.76 75.87 L 54.59 75.96 L 54.43 76.01 L 54.3 76.04 L 54.17 76.08 L 54.02 76.1 L 53.81 76.15 L 53.62 76.22 L 53.47 76.23 L 53.28 76.29 L 53.05 76.35 L 52.88 76.38 L 52.71 76.38 L 52.46 76.43 L 52.27 76.49 L 52.06 76.56 L 51.8 76.63 L 51.66 76.65 L 51.53 76.69 L 51.32 76.76 L 51.17 76.77 L 50.98 76.83 L 50.79 76.89 L 50.54 76.98 L 50.41 77.04 L 50.28 77.1 L 50.13 77.15 L 49.92 77.23 L 49.71 77.3 L 49.5 77.36 L 49.35 77.43 L 49.2 77.53 L 49.01 77.65 L 48.78 77.77 L 48.59 77.88 L 48.38 77.98 L 48.25 78.04 L 48.06 78.14 L 47.85 78.25 L 47.7 78.3 L 47.45 78.42 L 47.3 78.47 L 47.09 78.56 L 46.96 78.67 L 46.75 78.78 L 46.54 78.85 L 46.39 78.92 L 46.16 79.02 L 46.01 79.12 L 45.89 79.21 L 45.67 79.32 L 45.46 79.39 L 45.3 79.46 L 45.1 79.56 L 44.93 79.66 L 44.81 79.75 L 44.62 79.9 L 44.47 79.96 L 44.26 80.05 L 44.03 80.14 L 43.84 80.21 L 43.67 80.3 L 43.46 80.44 L 43.29 80.53 L 43.07 80.64 L 42.86 80.71 L 42.67 80.77 L 42.44 80.87 L 42.31 80.9 L 42.1 81 L 41.89 81.07 L 41.62 81.14 L 41.49 81.18 L 41.36 81.22 L 41.15 81.28 L 40.94 81.35 L 40.67 81.42 L 40.54 81.44 L 40.33 81.54 L 40.2 81.58 L 39.97 81.67 L 39.84 81.71 L 39.67 81.8 L 39.46 81.89 L 39.25 81.95 L 39.12 82.06 L 38.91 82.19 L 38.76 82.25 L 38.59 82.34 L 38.38 82.43 L 38.17 82.5 L 38 82.6 L 37.85 82.66 L 37.64 82.75 L 37.49 82.84 L 37.26 82.93 L 37.07 83.01 L 36.92 83.08 L 36.73 83.19 L 36.52 83.27 L 36.35 83.35 L 36.12 83.47 L 36.01 83.55 L 35.85 83.63 L 35.65 83.79 L 35.44 83.93 L 35.28 84.01 L 35.13 84.11 L 34.96 84.21 L 34.79 84.3 L 34.64 84.39 L 34.51 84.46 L 34.28 84.59 L 34.09 84.73 L 33.88 84.87 L 33.71 84.97 L 33.54 85.08 L 33.41 85.2 L 33.31 85.35 L 33.22 85.51 L 33.08 85.67 L 32.99 85.79 L 32.89 85.96 L 32.74 86.14 L 32.55 86.28 L 32.44 86.39 L 32.29 86.53 L 32.17 86.62 L 32 86.76 L 31.89 86.82 L 31.74 86.94 L 31.58 87.07 L 31.47 87.16 L 31.32 87.29 L 31.2 87.36 L 31.03 87.47 L 30.92 87.57 L 30.79 87.7 L 30.67 87.77 L 30.5 87.88 L 30.39 87.99 L 30.29 88.07 L 30.12 88.24 L 29.91 88.38 L 29.71 88.53 L 29.53 88.62 L 29.31 88.73 L 29.14 88.83 L 28.93 88.9 L 28.74 88.97 L 28.53 89.04 L 28.32 89.1 L 28.13 89.18 L 27.92 89.25 L 27.77 89.31 L 27.56 89.4 L 27.39 89.5 L 27.24 89.58 L 27.01 89.68 L 26.88 89.78 L 26.67 89.91 L 26.46 90.03 L 26.33 90.14 L 26.16 90.24 L 25.99 90.35 L 25.87 90.47 L 25.68 90.6 L 25.51 90.71 L 25.36 90.89 L 25.26 91.05 L 25.13 91.2 L 25 91.4 L 24.87 91.59 L 24.73 91.74 L 24.6 91.95 L 24.54 92.07 L 24.47 92.19 L 24.35 92.38 L 24.32 92.56 L 24.28 92.71 L 24.26 92.84 L 24.22 92.97 L 24.18 93.1 L 24.16 93.35 L 24.14 93.62 L 24.09 93.85 L 24.03 94.04 L 24.03 94.29 L 24.03 94.55 L 24.03 94.83 L 24.01 94.96 L 23.94 95.19 L 23.88 95.42 L 23.8 95.67 L 23.78 95.8 L 23.75 95.93 L 23.71 96.08 L 23.67 96.21 L 23.63 96.34 L 23.58 96.57 L 23.5 96.79 L 23.44 96.99 L 23.39 97.11 L 23.25 97.33 L 23.18 97.46 L 23.08 97.7 L 23.01 97.9 L 22.93 98.1 L 22.87 98.3 L 22.78 98.49 L 22.7 98.67 L 22.68 98.89 L 22.66 99.16 L 22.63 99.31 L 22.59 99.44 L 22.57 99.58 L 22.55 99.82 L 22.55 100.09 L 22.55 100.35 L 22.53 100.63 L 22.53 100.89 L 22.53 101.17 L 22.53 101.43 L 22.51 101.59 L 22.49 101.73 L 22.46 101.87 L 22.42 102.01 L 22.42 102.25 L 22.4 102.51 L 22.4 102.79 L 22.4 103.05 L 22.4 103.32 L 22.38 103.47 L 22.36 103.62 L 22.32 103.76 L 22.28 103.89 L 22.27 104.13 L 22.27 104.4 L 22.27 104.67 L 22.27 104.94 L 22.27 105.21 L 22.27 105.48 L 22.27 105.75 L 22.28 106.01 L 22.34 106.26 L 22.38 106.39 L 22.4 106.55 L 22.44 106.8 L 22.47 106.93 L 22.51 107.06 L 22.57 107.28 L 22.65 107.44 L 22.74 107.65 L 22.8 107.9 L 22.82 108.05 L 22.85 108.23 L 22.93 108.43 L 22.99 108.64 L 23.06 108.82 L 23.12 108.95 L 23.23 109.2 L 23.27 109.34 L 23.39 109.56 L 23.46 109.73 L 23.56 109.94 L 23.65 110.1 L 23.73 110.26 L 23.84 110.46 L 23.97 110.69 L 24.03 110.82 L 24.11 110.95 L 24.26 111.16 L 24.39 111.34 L 24.49 111.55 L 24.6 111.72 L 24.69 111.85 L 24.79 111.96 L 24.92 112.14 L 25 112.26 L 25.07 112.42 L 25.19 112.59 L 25.3 112.74 L 25.44 112.95 L 25.57 113.11 L 25.7 113.25 L 25.83 113.44 L 25.95 113.61 L 26.04 113.73 L 26.18 113.85 L 26.27 113.95 L 26.46 114.17 L 26.55 114.28 L 26.65 114.37 L 26.82 114.53 L 26.92 114.63 L 27.07 114.79 L 27.24 114.93 L 27.33 115.03 L 27.52 115.19 L 27.62 115.3 L 27.79 115.47 L 27.92 115.61 L 28.05 115.73 L 28.15 115.84 L 28.32 116.01 L 28.45 116.15 L 28.6 116.31 L 28.7 116.42 L 28.85 116.55 L 29 116.69 L 29.15 116.9 L 29.29 117.08 L 29.38 117.18 L 29.53 117.36 L 29.69 117.52 L 29.78 117.62 L 29.88 117.71 L 29.99 117.82 L 30.08 117.92 L 30.18 118.04 L 30.35 118.19 L 30.45 118.3 L 30.6 118.44 L 30.67 118.56 L 30.79 118.73 L 30.98 118.88 L 31.15 119 L 31.26 119.1 L 31.41 119.24 L 31.62 119.37 L 31.81 119.51 L 31.96 119.64 L 32.15 119.78 L 32.34 119.92 L 32.49 120.02 L 32.65 120.11 L 32.84 120.26 L 33.01 120.38 L 33.23 120.51 L 33.37 120.58 L 33.5 120.68 L 33.71 120.82 L 33.9 120.93 L 34.03 120.99 L 34.22 121.1 L 34.39 121.21 L 34.58 121.34 L 34.75 121.43 L 34.91 121.51 L 35.13 121.6 L 35.28 121.66 L 35.46 121.76 L 35.63 121.83 L 35.78 121.9 L 35.89 121.97 L 36.12 122.08 L 36.23 122.18 L 36.35 122.27 L 36.48 122.37 L 36.61 122.47 L 36.75 122.54 L 36.97 122.66 L 37.2 122.75 L 37.41 122.89 L 37.56 122.97 L 37.68 123.04 L 37.81 123.15 L 38 123.29 L 38.15 123.4 L 38.32 123.5 L 38.49 123.63 L 38.66 123.76 L 38.89 123.86 L 39.08 123.97 L 39.25 124.1 L 39.36 124.19 L 39.59 124.35 L 39.71 124.42 L 39.82 124.49 L 40.03 124.64 L 40.18 124.78 L 40.31 124.88 L 40.5 125.01 L 40.6 125.11 L 40.71 125.2 L 40.81 125.3 L 41.03 125.44 L 41.24 125.59 L 41.41 125.72 L 41.6 125.85 L 41.72 125.95 L 41.91 126.13 L 42.12 126.31 L 42.25 126.4 L 42.38 126.51 L 42.5 126.6 L 42.69 126.78 L 42.84 126.98 L 42.97 127.15 L 43.1 127.32 L 43.24 127.52 L 43.37 127.71 L 43.52 127.95 L 43.6 128.07 L 43.77 128.28 L 43.96 128.42 L 44.03 128.54 L 44.15 128.72 L 44.22 128.92 L 44.3 129.13 L 44.39 129.24 L 44.51 129.42 L 44.6 129.63 L 44.68 129.84 L 44.74 130.04 L 44.85 130.24 L 44.91 130.38 L 45.06 130.58 L 45.12 130.7 L 45.21 130.92 L 45.29 131.12 L 45.36 131.28 L 45.48 131.46 L 45.53 131.6 L 45.63 131.82 L 45.72 131.97 L 45.82 132.14 L 45.93 132.27 L 46.08 132.43 L 46.25 132.62 L 46.35 132.72 L 46.5 132.83 L 46.69 132.97 L 46.84 133.14 L 47.01 133.26 L 47.13 133.33 L 47.26 133.39 L 47.39 133.5 L 47.6 133.64 L 47.75 133.75 L 47.94 133.88 L 48.08 133.94 L 48.3 134.04 L 48.51 134.21 L 48.74 134.31 L 48.85 134.37 L 49.04 134.45 L 49.25 134.52 L 49.48 134.61 L 49.69 134.75 L 49.82 134.81 L 50.07 134.91 L 50.26 135 L 50.39 135.06 L 50.5 135.12 L 50.69 135.2 L 50.88 135.33 L 51.07 135.47 L 51.26 135.59 L 51.42 135.67 L 51.55 135.74 L 51.7 135.8 L 51.83 135.88 L 51.97 135.97 L 52.1 136.04 L 52.23 136.12 L 52.46 136.25 L 52.57 136.34 L 52.82 136.5 L 52.93 136.57 L 53.16 136.68 L 53.37 136.79 L 53.47 136.91 L 53.6 137.06 L 53.77 137.24 L 53.86 137.34 L 53.94 137.46 L 54.02 137.58 L 54.13 137.75 L 54.22 137.87 L 54.38 138.02 L 54.45 138.13 L 54.62 138.34 L 54.78 138.54 L 54.91 138.66 L 55 138.77 L 55.17 138.94 L 55.23 139.06 L 55.34 139.3 L 55.46 139.49 L 55.59 139.69 L 55.65 139.84 L 55.69 139.97 L 55.76 140.18 L 55.86 140.37 L 56.01 140.55 L 56.18 140.75 L 56.29 140.85 L 56.37 140.97 L 56.52 141.1 L 56.62 141.19 L 56.73 141.29 L 56.82 141.39 L 56.92 141.51 L 57.03 141.6 L 57.2 141.7 L 57.39 141.88 L 57.56 142.05 L 57.72 142.18 L 57.87 142.32 L 58.02 142.5 L 58.21 142.71 L 58.38 142.85 L 58.48 142.97 L 58.57 143.15 L 58.7 143.25 L 58.89 143.38 L 59.01 143.49 L 59.18 143.65 L 59.31 143.83 L 59.44 143.97 L 59.6 144.11 L 59.65 144.22 L 59.77 144.33 L 59.96 144.46 L 60.05 144.55 L 60.15 144.66 L 60.22 144.82 L 60.34 145.03 L 60.41 145.19 L 60.54 145.38 L 60.72 145.6 L 60.81 145.74 L 60.98 145.95 L 61.06 146.06 L 61.23 146.22 L 61.38 146.43 L 61.47 146.55 L 61.55 146.68 L 61.65 146.79 L 61.74 146.88 L 61.89 147.04 L 61.97 147.16 L 62.08 147.33 L 62.18 147.48 L 62.27 147.65 L 62.39 147.78 L 62.52 147.92 L 62.65 148.05 L 62.78 148.18 L 62.97 148.34 L 63.2 148.49 L 63.32 148.6 L 63.52 148.78 L 63.66 148.92 L 63.79 149.02 L 63.96 149.16 L 64.09 149.3 L 64.23 149.38 L 64.42 149.49 L 64.59 149.58 L 64.74 149.73 L 64.87 149.82 L 65.04 149.89 L 65.23 149.96 L 65.44 150.03 L 65.65 150.09 L 65.86 150.16 L 65.99 150.22 L 66.14 150.28 L 66.28 150.35 L 66.39 150.43 L 66.58 150.5 L 66.81 150.61 L 66.94 150.67 L 67.09 150.76 L 67.22 150.83 L 67.36 150.93 L 67.49 151 L 67.62 151.07 L 67.76 151.13 L 67.89 151.21 L 68.02 151.3 L 68.23 151.45 L 68.4 151.55 L 68.57 151.7 L 68.72 151.87 L 68.89 152.02 L 69.05 152.15 L 69.2 152.3 L 69.33 152.45 L 69.44 152.55 L 69.65 152.68 L 69.77 152.79 L 69.96 152.97 L 70.13 153.17 L 70.28 153.38 L 70.39 153.47 L 70.56 153.57 L 70.75 153.75 L 70.93 153.89 L 71.13 154.04 L 71.23 154.15 L 71.38 154.34 L 71.57 154.47 L 71.82 154.63 L 71.95 154.74 L 72.08 154.83 L 72.22 154.9 L 72.33 154.99 L 72.54 155.13 L 72.69 155.26 L 72.9 155.38 L 73.05 155.48 L 73.2 155.58 L 73.37 155.67 L 73.53 155.78 L 73.66 155.86 L 73.77 155.94 L 73.98 156.04 L 74.19 156.14 L 74.4 156.24 L 74.64 156.37 L 74.78 156.46 L 74.91 156.54 L 75.02 156.61 L 75.23 156.72 L 75.44 156.84 L 75.67 157 L 75.86 157.14 L 75.99 157.23 L 76.2 157.41 L 76.33 157.56 L 76.47 157.7 L 76.62 157.83 L 76.75 157.96 L 76.88 158.1 L 76.96 158.22 L 77.07 158.37 L 77.24 158.5 L 77.36 158.61 L 77.47 158.71 L 77.59 158.82 L 77.78 159 L 77.97 159.22 L 78.06 159.33 L 78.19 159.42 L 78.33 159.53 L 78.46 159.62 L 78.59 159.77 L 78.69 159.87 L 78.86 160.03 L 79.05 160.17 L 79.14 160.31 L 79.26 160.43 L 79.39 160.53 L 79.5 160.64 L 79.6 160.76 L 79.73 160.95 L 79.9 161.11 L 80.03 161.24 L 80.19 161.36 L 80.34 161.51 L 80.47 161.61 L 80.6 161.72 L 80.72 161.81 L 80.96 161.96 L 81.08 162.07 L 81.19 162.17 L 81.29 162.27 L 81.46 162.42 L 81.59 162.56 L 81.72 162.65 L 81.93 162.77 L 82.07 162.86 L 82.2 162.99 L 82.31 163.1 L 82.41 163.21 L 82.54 163.37 L 82.62 163.47 L 82.73 163.65 L 82.82 163.76 L 82.96 163.89 L 83.09 164.04 L 83.17 164.15 L 83.26 164.33 L 83.37 164.44 L 83.49 164.62 L 83.58 164.81 L 83.75 164.99 L 83.85 165.1 L 83.93 165.2 L 84 165.32 L 84.04 165.49 L 84.04 165.64 L 84.1 165.83 L 84.15 166.02 L 84.23 166.22 L 84.29 166.43 L 84.36 166.63 L 84.46 166.74 L 84.55 166.96 L 84.63 167.16 L 84.7 167.36 L 84.72 167.52 L 84.78 167.71 L 84.84 167.86 L 84.93 168.07 L 85.03 168.24 L 85.1 168.44 L 85.18 168.65 L 85.23 168.85 L 85.25 169 L 85.31 169.25 L 85.35 169.38 L 85.37 169.51 L 85.44 169.73 L 85.5 169.93 L 85.52 170.08 L 85.58 170.27 L 85.65 170.43 L 85.75 170.64 L 85.84 170.8 L 85.92 170.95 L 86.01 171.17 L 86.11 171.34 L 86.18 171.49 L 86.28 171.66 L 86.41 171.84 L 86.51 172.01 L 86.58 172.23 L 86.66 172.43 L 86.75 172.54 L 86.85 172.71 L 86.96 172.87 L 87.08 173.05 L 87.19 173.23 L 87.32 173.39 L 87.47 173.58 L 87.59 173.76 L 87.66 173.92 L 87.8 174.11 L 87.95 174.34 L 88.1 174.56 L 88.21 174.68 L 88.31 174.78 L 88.48 174.95 L 88.56 175.07 L 88.67 175.25 L 88.76 175.36 L 88.9 175.49 L 89.03 175.64 L 89.16 175.76 L 89.26 175.86 L 89.43 175.98 L 89.58 176.09 L 89.79 176.22 L 90 176.32 L 90.21 176.43 L 90.36 176.57 L 90.49 176.67 L 90.66 176.76 L 90.85 176.87 L 91.02 176.97 L 91.19 177.1 L 91.36 177.23 L 91.55 177.34 L 91.78 177.46 L 91.91 177.53 L 92.05 177.63 L 92.18 177.7 L 92.29 177.77 L 92.48 177.88 L 92.71 177.99 L 92.83 178.05 L 93.03 178.16 L 93.21 178.25 L 93.41 178.35 L 93.66 178.44 L 93.79 178.52 L 94.04 178.62 L 94.25 178.73 L 94.4 178.83 L 94.59 178.93 L 94.86 179.02 L 95.05 179.09 L 95.24 179.2 L 95.44 179.32 L 95.67 179.43 L 95.86 179.5 L 95.98 179.56 L 96.2 179.63 L 96.34 179.69 L 96.49 179.77 L 96.62 179.83 L 96.75 179.9 L 96.87 179.97 L 97.08 180.04 L 97.29 180.11 L 97.53 180.17 L 97.68 180.23 L 97.95 180.34 L 98.1 180.4 L 98.35 180.49 L 98.6 180.5 L 98.73 180.52 L 98.96 180.58 L 99.15 180.63 L 99.39 180.63 L 99.53 180.65 L 99.75 180.71 L 99.96 180.76 L 100.21 180.77 L 100.47 180.77 L 100.74 180.77 L 101.01 180.77 L 101.27 180.77 L 101.56 180.77 L 101.82 180.77 L 102.09 180.77 L 102.22 180.77 L 102.35 180.77 L 102.49 180.77 L 102.62 180.77 L 102.77 180.77 L 102.9 180.77 L 103.04 180.77 L 103.17 180.77 L 103.3 180.77 L 103.53 180.76 L 103.72 180.7 L 103.93 180.63 L 104.02 180.55 L 104.16 180.41 L 104.27 180.34 L 104.44 180.26 L 104.61 180.16 L 104.73 180.04 L 104.86 179.91 L 104.99 179.78 L 105.12 179.65 L 105.22 179.49 L 105.33 179.32 L 105.47 179.17 L 105.56 179.05 L 105.69 178.87 L 105.81 178.77 L 105.96 178.69 L 106.17 178.59 L 106.28 178.48 L 106.45 178.37 L 106.66 178.26 L 106.91 178.14 L 107.04 178.1 L 107.25 178.04 L 107.46 177.96 L 107.61 177.94 L 107.74 177.94 L 107.89 177.94 L 108.03 177.94 L 108.16 177.94 L 108.29 177.94 L 108.43 177.94 L 108.56 177.94 L 108.69 177.94 L 108.82 177.94 L 108.96 177.94 L 109.11 177.94 L 109.34 177.93 L 109.53 177.87 L 109.77 177.81 L 109.96 177.76 L 110.11 177.69 L 110.32 177.6 L 110.55 177.5 L 110.74 177.4 L 110.97 177.29 L 111.18 177.22 L 111.27 177.14 L 111.41 177 L 111.52 176.93 L 111.77 176.85 L 111.9 176.81 L 112.13 176.7 L 112.28 176.63 L 112.41 176.56 L 112.64 176.44 L 112.81 176.36 L 113.02 176.26 L 113.28 176.2 L 113.53 176.14 L 113.66 176.12 L 113.8 176.08 L 113.95 176.07 L 114.08 176.06 L 114.23 176.06 L 114.37 176.06 L 114.61 176.01 L 114.73 175.98 L 114.88 175.95 L 115.03 175.94 L 115.16 175.92 L 115.3 175.92 L 115.45 175.92 L 115.64 175.88 L 115.83 175.82 L 115.98 175.79 L 116.17 175.74 L 116.36 175.67 L 116.51 175.66 L 116.7 175.6 L 116.85 175.53 L 117.06 175.44 L 117.33 175.38 L 117.52 175.34 L 117.71 175.26 L 117.97 175.2 L 118.1 175.17 L 118.37 175.07 L 118.56 174.98 L 118.79 174.87 L 118.92 174.83 L 119.05 174.8 L 119.19 174.77 L 119.32 174.74 L 119.47 174.71 L 119.68 174.66 L 120.08 174.53 L 120.12 174.52 L 120.17 174.53 L 120.21 174.56 L 120.23 174.59 L 120.25 174.63 L 120.27 174.68 L 120.25 174.71 L 120.23 174.76 L 120.19 174.78 L 120.15 174.8 L 120.1 174.81 L 120.06 174.8 L 120.02 174.77 L 120 174.72 L 119.98 174.69 L 119.98 174.64 L 120 174.6 L 120.02 174.57 L 120.06 174.53 L 120.1 174.52 L 120.15 174.53 L 120.19 174.54 L 120.23 174.58 L 120.25 174.62 L 120.27 174.65 L 120.25 174.7 L 120.23 174.75 L 120.21 174.77 L 120.15 174.8 L 120.15 174.8 L 119.64 174.96 L 119.4 175 L 119.26 175.04 L 119 175.11 L 118.79 175.17 L 118.58 175.28 L 118.33 175.38 L 118.18 175.44 L 117.91 175.52 L 117.71 175.58 L 117.48 175.65 L 117.27 175.68 L 117.08 175.74 L 116.89 175.84 L 116.68 175.91 L 116.45 175.95 L 116.24 176.01 L 116 176.07 L 115.81 176.1 L 115.58 176.18 L 115.45 176.19 L 115.18 176.2 L 114.94 176.21 L 114.8 176.25 L 114.65 176.27 L 114.52 176.31 L 114.37 176.33 L 114.1 176.33 L 113.85 176.34 L 113.72 176.38 L 113.59 176.42 L 113.45 176.45 L 113.23 176.49 L 113.04 176.55 L 112.85 176.66 L 112.66 176.73 L 112.54 176.8 L 112.41 176.87 L 112.28 176.94 L 112.13 177.04 L 111.86 177.14 L 111.67 177.2 L 111.54 177.29 L 111.39 177.44 L 111.16 177.53 L 110.97 177.6 L 110.78 177.71 L 110.65 177.77 L 110.44 177.87 L 110.27 177.94 L 110.04 178.04 L 109.81 178.1 L 109.6 178.13 L 109.37 178.19 L 109.24 178.22 L 109.11 178.22 L 108.82 178.22 L 108.56 178.22 L 108.29 178.22 L 108.03 178.22 L 107.76 178.23 L 107.55 178.24 L 107.34 178.31 L 107.12 178.38 L 106.91 178.46 L 106.7 178.59 L 106.55 178.69 L 106.4 178.78 L 106.19 178.89 L 106.07 178.96 L 105.94 179.05 L 105.83 179.19 L 105.75 179.31 L 105.64 179.44 L 105.52 179.56 L 105.43 179.73 L 105.28 179.92 L 105.14 180.05 L 105.01 180.19 L 104.86 180.33 L 104.67 180.47 L 104.5 180.57 L 104.36 180.63 L 104.21 180.76 L 104 180.91 L 103.8 180.97 L 103.57 181.03 L 103.43 181.05 L 103.3 181.05 L 103.17 181.05 L 103.04 181.05 L 102.9 181.05 L 102.77 181.05 L 102.62 181.05 L 102.49 181.05 L 102.35 181.05 L 102.22 181.05 L 102.09 181.05 L 101.95 181.05 L 101.82 181.05 L 101.69 181.05 L 101.56 181.05 L 101.4 181.05 L 101.27 181.05 L 101.14 181.05 L 101.01 181.05 L 100.87 181.05 L 100.74 181.05 L 100.61 181.05 L 100.47 181.05 L 100.34 181.05 L 100.19 181.05 L 100.06 181.05 L 99.92 181.04 L 99.77 181.03 L 99.58 180.95 L 99.39 180.92 L 99.26 180.91 L 99.11 180.91 L 98.97 180.88 L 98.77 180.82 L 98.58 180.77 L 98.42 180.76 L 98.27 180.74 L 98.14 180.7 L 97.99 180.65 L 97.72 180.53 L 97.48 180.45 L 97.34 180.41 L 97.08 180.34 L 96.87 180.26 L 96.64 180.14 L 96.49 180.08 L 96.36 180.02 L 96.11 179.91 L 95.98 179.87 L 95.84 179.81 L 95.65 179.73 L 95.44 179.63 L 95.2 179.51 L 95.01 179.41 L 94.84 179.32 L 94.63 179.23 L 94.5 179.19 L 94.36 179.14 L 94.15 179.02 L 94.02 178.91 L 93.81 178.82 L 93.66 178.77 L 93.41 178.65 L 93.19 178.55 L 92.98 178.46 L 92.81 178.35 L 92.62 178.24 L 92.47 178.19 L 92.26 178.07 L 92.05 177.94 L 91.9 177.86 L 91.78 177.78 L 91.65 177.72 L 91.42 177.6 L 91.21 177.47 L 91 177.34 L 90.85 177.21 L 90.68 177.11 L 90.53 177.03 L 90.36 176.92 L 90.23 176.86 L 90.09 176.73 L 89.98 176.63 L 89.77 176.52 L 89.62 176.46 L 89.43 176.36 L 89.31 176.28 L 89.14 176.15 L 88.97 175.98 L 88.82 175.84 L 88.67 175.71 L 88.54 175.56 L 88.4 175.37 L 88.29 175.2 L 88.2 175.06 L 88.04 174.89 L 87.93 174.81 L 87.78 174.6 L 87.64 174.39 L 87.55 174.28 L 87.42 174.09 L 87.32 173.9 L 87.21 173.74 L 87.11 173.61 L 87 173.5 L 86.87 173.29 L 86.79 173.14 L 86.64 172.96 L 86.54 172.79 L 86.45 172.63 L 86.34 172.42 L 86.28 172.23 L 86.2 172.08 L 86.11 171.91 L 85.97 171.73 L 85.86 171.55 L 85.8 171.4 L 85.71 171.19 L 85.6 171.01 L 85.54 170.86 L 85.42 170.65 L 85.33 170.46 L 85.27 170.25 L 85.23 170.02 L 85.16 169.81 L 85.1 169.59 L 85.06 169.45 L 85.03 169.31 L 84.99 169.18 L 84.97 169.03 L 84.93 168.84 L 84.86 168.65 L 84.78 168.44 L 84.72 168.29 L 84.63 168.08 L 84.51 167.89 L 84.46 167.68 L 84.42 167.46 L 84.34 167.27 L 84.29 167.08 L 84.23 166.92 L 84.08 166.72 L 84.02 166.51 L 83.94 166.32 L 83.89 166.12 L 83.81 165.9 L 83.75 165.65 L 83.74 165.46 L 83.64 165.29 L 83.53 165.19 L 83.43 165.08 L 83.28 164.86 L 83.17 164.7 L 83.07 164.56 L 82.98 164.39 L 82.88 164.24 L 82.75 164.1 L 82.62 163.95 L 82.46 163.77 L 82.37 163.62 L 82.27 163.47 L 82.12 163.29 L 81.91 163.09 L 81.8 163.02 L 81.59 162.89 L 81.4 162.74 L 81.27 162.61 L 81.12 162.44 L 81.02 162.35 L 80.91 162.25 L 80.81 162.17 L 80.59 162 L 80.47 161.9 L 80.32 161.79 L 80.19 161.69 L 80.03 161.55 L 79.84 161.42 L 79.73 161.31 L 79.6 161.19 L 79.48 161.01 L 79.33 160.83 L 79.22 160.73 L 79.07 160.61 L 78.95 160.47 L 78.76 160.29 L 78.59 160.14 L 78.4 159.93 L 78.31 159.83 L 78.17 159.73 L 78.02 159.63 L 77.87 159.51 L 77.76 159.39 L 77.68 159.28 L 77.51 159.1 L 77.4 159.02 L 77.3 158.92 L 77.19 158.83 L 77.06 158.73 L 76.94 158.64 L 76.83 158.54 L 76.69 158.36 L 76.6 158.24 L 76.47 158.1 L 76.33 157.96 L 76.2 157.83 L 76.07 157.69 L 75.94 157.53 L 75.73 157.38 L 75.59 157.29 L 75.4 157.14 L 75.2 157 L 74.99 156.9 L 74.78 156.76 L 74.64 156.68 L 74.51 156.61 L 74.38 156.54 L 74.27 156.48 L 74.08 156.38 L 73.89 156.27 L 73.64 156.14 L 73.53 156.07 L 73.37 155.98 L 73.24 155.89 L 73.07 155.79 L 72.92 155.71 L 72.77 155.62 L 72.63 155.55 L 72.42 155.41 L 72.29 155.28 L 72.08 155.13 L 71.93 155.05 L 71.8 154.95 L 71.67 154.87 L 71.55 154.78 L 71.32 154.66 L 71.13 154.48 L 71.04 154.34 L 70.87 154.19 L 70.64 154.03 L 70.53 153.93 L 70.43 153.82 L 70.24 153.71 L 70.13 153.63 L 70 153.44 L 69.84 153.25 L 69.69 153.08 L 69.58 152.99 L 69.39 152.85 L 69.14 152.67 L 69.05 152.57 L 68.91 152.44 L 68.78 152.3 L 68.61 152.13 L 68.46 151.96 L 68.33 151.84 L 68.15 151.73 L 67.98 151.59 L 67.77 151.43 L 67.64 151.37 L 67.49 151.3 L 67.36 151.23 L 67.21 151.15 L 67.09 151.06 L 66.94 150.99 L 66.71 150.87 L 66.58 150.82 L 66.37 150.73 L 66.14 150.61 L 66.01 150.55 L 65.78 150.45 L 65.55 150.38 L 65.35 150.31 L 65.14 150.25 L 64.93 150.17 L 64.72 150.09 L 64.53 149.95 L 64.42 149.84 L 64.25 149.73 L 64.07 149.64 L 63.9 149.5 L 63.77 149.38 L 63.64 149.27 L 63.52 149.2 L 63.39 149.06 L 63.24 148.9 L 63.13 148.82 L 63.03 148.72 L 62.9 148.64 L 62.67 148.47 L 62.52 148.32 L 62.39 148.19 L 62.23 148.05 L 62.1 147.9 L 61.97 147.72 L 61.87 147.54 L 61.8 147.39 L 61.7 147.23 L 61.55 147.06 L 61.46 146.96 L 61.34 146.84 L 61.25 146.72 L 61.09 146.49 L 60.96 146.32 L 60.77 146.13 L 60.68 146.02 L 60.49 145.78 L 60.41 145.66 L 60.24 145.46 L 60.11 145.25 L 60.03 145.06 L 59.94 144.85 L 59.79 144.7 L 59.58 144.55 L 59.41 144.36 L 59.31 144.24 L 59.18 144.1 L 59.03 143.93 L 58.89 143.77 L 58.8 143.69 L 58.63 143.55 L 58.42 143.39 L 58.32 143.28 L 58.23 143.11 L 58.12 142.99 L 58 142.9 L 57.91 142.8 L 57.81 142.71 L 57.72 142.6 L 57.58 142.45 L 57.45 142.32 L 57.28 142.15 L 57.19 142.07 L 57.07 141.96 L 56.9 141.84 L 56.79 141.76 L 56.63 141.59 L 56.52 141.48 L 56.35 141.31 L 56.24 141.22 L 56.08 141.04 L 55.99 140.94 L 55.89 140.83 L 55.78 140.74 L 55.69 140.62 L 55.55 140.4 L 55.46 140.17 L 55.38 139.93 L 55.29 139.74 L 55.15 139.52 L 55.08 139.39 L 54.98 139.2 L 54.89 139.04 L 54.72 138.89 L 54.62 138.79 L 54.47 138.6 L 54.34 138.42 L 54.19 138.24 L 54.02 138.06 L 53.88 137.88 L 53.77 137.71 L 53.66 137.53 L 53.56 137.44 L 53.47 137.33 L 53.31 137.15 L 53.16 136.96 L 52.95 136.85 L 52.8 136.79 L 52.69 136.7 L 52.55 136.62 L 52.33 136.46 L 52.19 136.39 L 51.99 136.25 L 51.85 136.16 L 51.72 136.08 L 51.59 136.01 L 51.45 135.94 L 51.3 135.86 L 51.15 135.77 L 50.96 135.66 L 50.77 135.55 L 50.58 135.44 L 50.41 135.37 L 50.26 135.3 L 50.05 135.21 L 49.84 135.12 L 49.69 135.06 L 49.56 135 L 49.44 134.93 L 49.25 134.83 L 49.06 134.76 L 48.83 134.67 L 48.63 134.57 L 48.47 134.51 L 48.25 134.35 L 48.08 134.25 L 47.87 134.17 L 47.68 134.04 L 47.51 133.93 L 47.34 133.8 L 47.13 133.64 L 46.99 133.57 L 46.86 133.5 L 46.73 133.43 L 46.61 133.33 L 46.5 133.19 L 46.37 133.08 L 46.25 133.02 L 46.14 132.92 L 46.05 132.83 L 45.93 132.72 L 45.78 132.54 L 45.65 132.39 L 45.51 132.21 L 45.4 132.02 L 45.32 131.84 L 45.23 131.61 L 45.1 131.4 L 45 131.22 L 44.94 131.01 L 44.87 130.82 L 44.75 130.64 L 44.66 130.51 L 44.53 130.26 L 44.47 130.14 L 44.39 129.93 L 44.32 129.74 L 44.26 129.58 L 44.17 129.43 L 44.03 129.22 L 43.96 129.02 L 43.9 128.84 L 43.79 128.68 L 43.69 128.55 L 43.58 128.46 L 43.48 128.35 L 43.37 128.23 L 43.27 128.08 L 43.14 127.87 L 43.01 127.68 L 42.88 127.48 L 42.74 127.33 L 42.61 127.14 L 42.48 126.94 L 42.34 126.8 L 42.23 126.72 L 42.08 126.62 L 41.95 126.52 L 41.83 126.42 L 41.64 126.24 L 41.53 126.16 L 41.34 126.02 L 41.13 125.86 L 41 125.74 L 40.79 125.6 L 40.64 125.51 L 40.5 125.41 L 40.33 125.24 L 40.18 125.13 L 40.07 125.06 L 39.93 124.93 L 39.78 124.79 L 39.57 124.66 L 39.42 124.58 L 39.31 124.49 L 39.16 124.41 L 38.99 124.25 L 38.85 124.16 L 38.64 124.05 L 38.4 123.92 L 38.25 123.8 L 38.07 123.69 L 37.9 123.57 L 37.75 123.44 L 37.54 123.27 L 37.41 123.2 L 37.3 123.11 L 37.16 123.04 L 36.97 122.93 L 36.76 122.83 L 36.61 122.77 L 36.46 122.67 L 36.33 122.57 L 36.2 122.48 L 36.06 122.38 L 35.89 122.25 L 35.66 122.13 L 35.51 122.07 L 35.34 122 L 35.19 121.93 L 35.04 121.88 L 34.87 121.82 L 34.68 121.73 L 34.51 121.63 L 34.34 121.51 L 34.16 121.4 L 33.99 121.3 L 33.8 121.18 L 33.65 121.12 L 33.44 120.98 L 33.23 120.83 L 33.1 120.76 L 32.97 120.7 L 32.84 120.63 L 32.65 120.48 L 32.51 120.38 L 32.34 120.28 L 32.23 120.21 L 32.1 120.09 L 31.89 119.94 L 31.7 119.8 L 31.56 119.68 L 31.36 119.54 L 31.15 119.39 L 31.03 119.31 L 30.88 119.18 L 30.73 119.06 L 30.54 118.86 L 30.45 118.71 L 30.33 118.58 L 30.16 118.41 L 30.07 118.31 L 29.89 118.12 L 29.78 118.01 L 29.69 117.92 L 29.5 117.74 L 29.38 117.63 L 29.25 117.46 L 29.08 117.27 L 28.98 117.16 L 28.85 116.97 L 28.72 116.84 L 28.59 116.69 L 28.41 116.52 L 28.3 116.43 L 28.19 116.28 L 28.05 116.13 L 27.94 116.03 L 27.79 115.89 L 27.64 115.73 L 27.5 115.57 L 27.39 115.48 L 27.24 115.31 L 27.12 115.23 L 26.97 115.07 L 26.8 114.9 L 26.69 114.81 L 26.55 114.66 L 26.44 114.57 L 26.35 114.47 L 26.23 114.35 L 26.14 114.24 L 25.99 114.07 L 25.81 113.92 L 25.68 113.74 L 25.57 113.58 L 25.49 113.45 L 25.34 113.31 L 25.21 113.11 L 25.07 112.92 L 24.94 112.75 L 24.85 112.59 L 24.73 112.39 L 24.64 112.24 L 24.51 112.07 L 24.39 111.96 L 24.3 111.77 L 24.2 111.58 L 24.09 111.42 L 23.95 111.22 L 23.84 111.07 L 23.78 110.95 L 23.65 110.71 L 23.52 110.5 L 23.42 110.32 L 23.37 110.16 L 23.25 109.96 L 23.16 109.76 L 23.08 109.57 L 22.97 109.32 L 22.91 109.19 L 22.82 108.95 L 22.74 108.83 L 22.68 108.62 L 22.61 108.41 L 22.55 108.19 L 22.53 107.94 L 22.47 107.75 L 22.42 107.58 L 22.32 107.36 L 22.25 107.14 L 22.21 106.99 L 22.19 106.86 L 22.15 106.72 L 22.11 106.46 L 22.08 106.32 L 22.06 106.19 L 22.02 106.04 L 22 105.89 L 22 105.75 L 22 105.61 L 22 105.48 L 22 105.35 L 22 105.21 L 22 105.08 L 22 104.94 L 22 104.81 L 22 104.67 L 22 104.54 L 22 104.4 L 22 104.27 L 22 104.12 L 22.02 103.99 L 22.04 103.83 L 22.06 103.7 L 22.11 103.44 L 22.13 103.19 L 22.13 103.05 L 22.13 102.92 L 22.13 102.79 L 22.13 102.65 L 22.13 102.51 L 22.13 102.38 L 22.13 102.24 L 22.15 102.09 L 22.17 101.95 L 22.19 101.8 L 22.25 101.55 L 22.27 101.3 L 22.27 101.17 L 22.27 101.02 L 22.27 100.89 L 22.27 100.76 L 22.27 100.63 L 22.27 100.5 L 22.27 100.35 L 22.27 100.22 L 22.27 100.09 L 22.27 99.94 L 22.27 99.81 L 22.28 99.67 L 22.28 99.51 L 22.32 99.38 L 22.36 99.25 L 22.4 99.01 L 22.4 98.88 L 22.4 98.73 L 22.46 98.48 L 22.55 98.26 L 22.63 98.11 L 22.7 97.9 L 22.78 97.69 L 22.89 97.48 L 22.93 97.33 L 23.01 97.2 L 23.06 97.08 L 23.18 96.89 L 23.23 96.69 L 23.31 96.49 L 23.39 96.27 L 23.4 96.14 L 23.44 96.01 L 23.48 95.87 L 23.52 95.74 L 23.54 95.6 L 23.58 95.47 L 23.61 95.33 L 23.67 95.11 L 23.73 94.91 L 23.75 94.69 L 23.75 94.55 L 23.75 94.42 L 23.75 94.29 L 23.75 94.15 L 23.76 94.01 L 23.78 93.86 L 23.84 93.67 L 23.88 93.47 L 23.9 93.34 L 23.9 93.2 L 23.92 93.04 L 23.94 92.91 L 23.97 92.78 L 24.03 92.53 L 24.05 92.37 L 24.16 92.14 L 24.28 91.94 L 24.35 91.79 L 24.43 91.67 L 24.56 91.47 L 24.69 91.32 L 24.83 91.13 L 24.96 90.93 L 25.07 90.81 L 25.19 90.64 L 25.26 90.52 L 25.44 90.41 L 25.59 90.32 L 25.74 90.18 L 25.91 90.04 L 26.08 89.93 L 26.21 89.84 L 26.4 89.73 L 26.61 89.6 L 26.8 89.46 L 26.99 89.37 L 27.18 89.26 L 27.33 89.2 L 27.54 89.09 L 27.73 89 L 27.92 88.92 L 28.13 88.86 L 28.34 88.79 L 28.53 88.72 L 28.74 88.66 L 28.93 88.59 L 29.1 88.53 L 29.29 88.42 L 29.46 88.32 L 29.65 88.22 L 29.84 88.08 L 30.01 87.95 L 30.16 87.78 L 30.26 87.68 L 30.43 87.58 L 30.58 87.48 L 30.73 87.35 L 30.9 87.21 L 31.07 87.11 L 31.2 87 L 31.36 86.87 L 31.56 86.7 L 31.74 86.56 L 31.91 86.46 L 32.06 86.33 L 32.23 86.16 L 32.4 86.03 L 32.51 85.93 L 32.63 85.83 L 32.72 85.65 L 32.8 85.54 L 32.93 85.41 L 33.03 85.29 L 33.14 85.12 L 33.29 84.93 L 33.48 84.79 L 33.65 84.69 L 33.84 84.58 L 34.05 84.45 L 34.26 84.31 L 34.39 84.24 L 34.53 84.17 L 34.68 84.1 L 34.83 83.99 L 35 83.88 L 35.15 83.79 L 35.38 83.63 L 35.59 83.49 L 35.72 83.39 L 35.83 83.32 L 35.99 83.22 L 36.2 83.09 L 36.33 83.03 L 36.52 82.96 L 36.67 82.9 L 36.86 82.75 L 37.07 82.69 L 37.26 82.62 L 37.43 82.52 L 37.62 82.45 L 37.75 82.38 L 37.96 82.28 L 38.19 82.19 L 38.38 82.12 L 38.55 82.04 L 38.66 81.97 L 38.85 81.88 L 39.04 81.74 L 39.25 81.65 L 39.46 81.58 L 39.63 81.52 L 39.76 81.44 L 39.99 81.37 L 40.12 81.31 L 40.33 81.24 L 40.47 81.18 L 40.6 81.14 L 40.85 81.07 L 41.05 81.01 L 41.28 80.94 L 41.41 80.9 L 41.68 80.83 L 41.89 80.77 L 42.08 80.7 L 42.21 80.63 L 42.44 80.56 L 42.67 80.46 L 42.86 80.4 L 43.05 80.33 L 43.22 80.22 L 43.41 80.12 L 43.62 79.99 L 43.84 79.9 L 44.05 79.82 L 44.22 79.75 L 44.36 79.68 L 44.53 79.58 L 44.7 79.45 L 44.87 79.36 L 45.08 79.25 L 45.27 79.15 L 45.46 79.08 L 45.63 79.01 L 45.78 78.91 L 45.95 78.82 L 46.16 78.71 L 46.33 78.61 L 46.54 78.54 L 46.71 78.48 L 46.86 78.38 L 47.07 78.28 L 47.34 78.17 L 47.47 78.1 L 47.6 78.04 L 47.81 77.94 L 48.02 77.83 L 48.13 77.76 L 48.36 77.66 L 48.55 77.55 L 48.78 77.46 L 48.93 77.37 L 49.12 77.23 L 49.31 77.13 L 49.52 77.06 L 49.71 77 L 49.94 76.93 L 50.16 76.85 L 50.3 76.79 L 50.43 76.71 L 50.58 76.65 L 50.79 76.59 L 51.02 76.52 L 51.25 76.49 L 51.47 76.43 L 51.61 76.39 L 51.74 76.35 L 51.97 76.29 L 52.18 76.22 L 52.4 76.16 L 52.54 76.13 L 52.71 76.1 L 52.86 76.09 L 53.09 76.05 L 53.31 75.98 L 53.52 75.95 L 53.73 75.89 L 53.98 75.83 L 54.22 75.78 L 54.45 75.71 L 54.68 75.62 L 54.91 75.55 L 55.04 75.51 L 55.31 75.44 L 55.44 75.38 L 55.7 75.3 L 55.86 75.24 L 56.1 75.17 L 56.24 75.09 L 56.45 75 L 56.56 74.94 L 56.81 74.88 L 57 74.83 L 57.2 74.77 L 57.39 74.7 L 57.55 74.64 L 57.75 74.53 L 57.94 74.43 L 58.13 74.36 L 58.4 74.25 L 58.53 74.19 L 58.67 74.13 L 58.87 74.03 L 59.08 73.92 L 59.2 73.86 L 59.35 73.79 L 59.61 73.69 L 59.77 73.63 L 59.9 73.59 L 60.03 73.56 L 60.28 73.47 L 60.41 73.41 L 60.54 73.34 L 60.7 73.28 L 60.9 73.22 L 61.11 73.15 L 61.25 73.09 L 61.38 73.05 L 61.51 73.02 L 61.76 72.94 L 61.97 72.84 L 62.08 72.78 L 62.29 72.7 L 62.5 72.64 L 62.69 72.57 L 62.88 72.51 L 63.03 72.4 L 63.2 72.27 L 63.41 72.1 L 63.56 72.01 L 63.69 71.91 L 63.87 71.73 L 63.96 71.62 L 64.13 71.42 L 64.23 71.29 L 64.32 71.18 L 64.43 71.08 L 64.61 70.88 L 64.78 70.7 L 64.91 70.56 L 65.06 70.42 L 65.21 70.28 L 65.29 70.17 L 65.48 69.98 L 65.55 69.87 L 65.69 69.68 L 65.8 69.5 L 65.9 69.33 L 65.97 69.21 L 66.07 69.09 L 66.18 68.92 L 66.31 68.73 L 66.45 68.6 L 66.58 68.47 L 66.73 68.34 L 66.86 68.19 L 67.03 68.05 L 67.15 67.96 L 67.26 67.84 L 67.45 67.65 L 67.64 67.54 L 67.77 67.49 L 67.91 67.35 L 68.08 67.22 L 68.27 67.11 L 68.46 67.01 L 68.65 66.93 L 68.91 66.83 L 69.1 66.74 L 69.26 66.64 L 69.46 66.53 L 69.67 66.47 L 69.88 66.4 L 70.09 66.34 L 70.3 66.27 L 70.53 66.2 L 70.74 66.1 L 70.87 66.03 L 71.1 65.97 L 71.3 65.93 L 71.51 65.87 L 71.74 65.84 L 71.95 65.77 L 72.18 65.71 L 72.37 65.67 L 72.58 65.6 L 72.71 65.54 L 72.84 65.5 L 72.97 65.47 L 73.13 65.43 L 73.26 65.39 L 73.39 65.36 L 73.53 65.33 L 73.66 65.3 L 73.79 65.26 L 73.92 65.23 L 74.08 65.19 L 74.23 65.17 L 74.42 65.15 L 74.61 65.08 L 74.8 64.99 L 75.01 64.91 L 75.21 64.85 L 75.42 64.78 L 75.65 64.75 L 75.84 64.69 L 76.03 64.61 L 76.18 64.55 L 76.35 64.41 L 76.54 64.31 L 76.69 64.24 L 76.9 64.15 L 77.06 64.04 L 77.21 63.94 L 77.43 63.85 L 77.64 63.77 L 77.83 63.71 L 78.04 63.64 L 78.25 63.58 L 78.5 63.5 L 78.71 63.4 L 78.82 63.34 L 79.05 63.27 L 79.18 63.24 L 79.33 63.21 L 79.47 63.17 L 79.6 63.15 L 79.81 63.1 L 80.02 63.04 L 80.26 63 L 80.4 62.97 L 80.55 62.93 L 80.68 62.91 L 80.81 62.87 L 81.02 62.84 L 81.25 62.78 L 81.38 62.75 L 81.52 62.75 L 81.65 62.75 L 81.78 62.75 L 81.91 62.75 L 82.05 62.75 L 82.2 62.75 L 82.33 62.75 L 82.46 62.75 L 82.6 62.75 L 82.73 62.75 L 82.86 62.75 L 83 62.75 L 83.13 62.75 L 83.26 62.75 L 83.41 62.75 L 83.55 62.75 L 83.68 62.75 L 83.81 62.75 L 83.94 62.75 L 84.08 62.75 L 84.21 62.75 L 84.34 62.75 L 84.48 62.75 L 84.61 62.75 L 84.76 62.75 L 84.89 62.75 L 85.03 62.75 L 85.16 62.75 L 85.29 62.75 L 85.42 62.75 L 85.56 62.75 L 85.69 62.75 L 85.84 62.76 L 86.09 62.81 L 86.28 62.87 L 86.51 62.9 L 86.64 62.9 L 86.77 62.9 L 86.9 62.9 L 87.04 62.9 L 87.19 62.9 L 87.32 62.9 L 87.46 62.9 L 87.59 62.9 L 87.72 62.9 L 87.85 62.9 L 87.99 62.9 L 88.12 62.9 L 88.25 62.9 L 88.39 62.9 L 88.54 62.9 L 88.67 62.9 L 88.8 62.9 L 88.94 62.9 L 89.07 62.9 L 89.2 62.9 L 89.33 62.9 L 89.47 62.9 L 89.6 62.9 L 89.75 62.9 L 89.88 62.9 L 90.02 62.9 L 90.15 62.9 L 90.28 62.9 L 90.42 62.9 L 90.55 62.9 L 90.68 62.9 L 90.81 62.9 L 90.97 62.9 L 91.1 62.9 L 91.23 62.9 L 91.36 62.9 L 91.52 62.9 L 91.69 62.9 L 91.86 62.9 L 92.01 62.9 L 92.16 62.9 L 92.31 62.9 L 92.45 62.9 L 92.58 62.9 L 92.71 62.9 L 92.84 62.88 L 93.11 62.88 L 93.38 62.88 L 93.66 62.88 L 93.93 62.88 L 94.19 62.88 L 94.46 62.88 L 94.7 62.87 L 94.91 62.84 L 95.12 62.76 L 95.39 62.74 L 95.62 62.73 L 95.82 62.67 L 96.05 62.61 L 96.24 62.56 L 96.43 62.49 L 96.56 62.42 L 96.77 62.31 L 97 62.15 L 97.21 62.06 L 97.36 62 L 97.53 61.85 L 97.74 61.71 L 97.95 61.59 L 98.12 61.48 L 98.33 61.37 L 98.6 61.29 L 98.8 61.22 L 99.01 61.14 L 99.15 61.08 L 99.3 61.05 L 99.43 61.02 L 99.58 61 L 99.71 61 L 99.87 61 L 100 61 L 100.13 61 L 100.27 61 L 100.4 61 L 100.53 61 L 100.68 61.01 L 100.93 61.06 L 101.12 61.12 L 101.35 61.13 L 101.48 61.13 L 101.61 61.13 L 101.75 61.13 L 101.88 61.13 L 102.01 61.13 L 102.16 61.13 L 102.3 61.14 L 102.45 61.17 L 102.64 61.23 L 102.87 61.3 L 103 61.34 L 103.13 61.36 L 103.36 61.41 L 103.51 61.41 L 103.66 61.43 L 103.85 61.49 L 104.04 61.55 L 104.19 61.58 L 104.4 61.64 L 104.59 61.7 L 104.74 61.73 L 104.97 61.84 L 105.1 61.91 L 105.26 61.97 L 105.41 62.02 L 105.58 62.07 L 105.83 62.18 L 105.96 62.21 L 106.11 62.25 L 106.36 62.38 L 106.55 62.5 L 106.7 62.58 L 106.87 62.68 L 107.08 62.78 L 107.25 62.86 L 107.42 62.97 L 107.53 63.04 L 107.67 63.16 L 107.86 63.29 L 108.05 63.41 L 108.16 63.49 L 108.31 63.63 L 108.48 63.77 L 108.63 63.83 L 108.81 63.91 L 108.96 63.98 L 109.11 64.06 L 109.22 64.15 L 109.37 64.23 L 109.53 64.35 L 109.72 64.46 L 109.83 64.53 L 109.96 64.69 L 110.17 64.84 L 110.4 64.96 L 110.59 65.08 L 110.76 65.19 L 110.87 65.27 L 111.06 65.32 L 111.2 65.32 L 111.33 65.32 L 111.58 65.38 L 111.77 65.43 L 111.99 65.45 L 112.13 65.45 L 112.28 65.45 L 112.41 65.45 L 112.54 65.47 L 112.7 65.48 L 112.85 65.51 L 112.96 65.54 L 113.21 65.59 L 113.34 65.59 L 113.49 65.59 L 113.63 65.59 L 113.78 65.61 L 113.97 65.68 L 114.18 65.74 L 114.38 65.81 L 114.57 65.86 L 114.71 65.89 L 114.92 65.95 L 115.13 66.02 L 115.33 66.1 L 115.54 66.2 L 115.69 66.26 L 115.83 66.32 L 116.05 66.44 L 116.24 66.52 L 116.43 66.59 L 116.66 66.7 L 116.83 66.81 L 116.95 66.91 L 117.17 67 L 117.33 67.06 L 117.57 67.17 L 117.78 67.27 L 118.01 67.37 L 118.18 67.48 L 118.29 67.58 L 118.47 67.67 L 118.67 67.77 L 118.83 67.84 L 119.03 67.91 L 119.26 68.01 L 119.45 68.11 L 119.7 68.18 L 119.91 68.25 L 120.1 68.3 L 120.25 68.3 L 120.4 68.32 L 120.55 68.35 L 120.7 68.38 L 120.88 68.41 L 121.01 68.42 L 121.18 68.42 L 121.31 68.43 L 121.56 68.48 L 121.75 68.54 L 121.98 68.55 L 122.24 68.55 L 122.51 68.55 L 122.75 68.54 L 122.96 68.5 L 123.19 68.44 L 123.44 68.41 L 123.57 68.37 L 123.7 68.34 L 123.85 68.31 L 124.01 68.29 L 124.27 68.28 L 124.5 68.26 L 124.65 68.23 L 124.78 68.19 L 124.92 68.17 L 125.18 68.13 L 125.39 68.09 L 125.62 68.03 L 125.87 68 L 126.06 67.96 L 126.28 67.9 L 126.44 67.88 L 126.57 67.88 L 126.7 67.88 L 126.83 67.88 L 126.97 67.88 L 127.1 67.88 L 127.23 67.88 L 127.37 67.88 L 127.52 67.88 L 127.65 67.88 L 127.78 67.88 L 127.92 67.88 L 128.05 67.88 L 128.18 67.88 L 128.31 67.88 L 128.45 67.88 L 128.6 67.88 L 128.73 67.89 L 128.88 67.9 L 129.02 67.94 L 129.15 67.96 L 129.4 68.01 L 129.53 68.01 L 129.68 68.02 L 129.81 68.03 L 130.02 68.11 L 130.21 68.15 L 130.35 68.15 L 130.61 68.22 L 130.74 68.25 L 130.9 68.3 L 131.1 68.37 L 131.29 68.42 L 131.54 68.48 L 131.77 68.58 L 131.92 68.65 L 132.11 68.7 L 132.24 68.72 L 132.45 68.78 L 132.66 68.85 L 132.85 68.91 L 133.06 68.97 L 133.21 68.98 L 133.34 69.02 L 133.48 69.07 L 133.7 69.15 L 133.89 69.21 L 134.12 69.24 L 134.25 69.24 L 134.39 69.24 L 134.52 69.24 L 134.65 69.22 L 134.79 69.22 L 134.92 69.22 L 135.07 69.22 L 135.2 69.22 L 135.34 69.22 L 135.47 69.22 L 135.6 69.22 L 135.74 69.22 L 135.87 69.22 L 136 69.22 L 136.15 69.24 L 136.3 69.26 L 136.49 69.32 L 136.68 69.37 L 136.84 69.39 L 137.04 69.46 L 137.25 69.54 L 137.41 69.57 L 137.56 69.62 L 137.78 69.72 L 138.03 69.78 L 138.18 69.79 L 138.39 69.85 L 138.58 69.91 L 138.73 69.92 L 138.92 69.99 L 139.13 70.06 L 139.34 70.14 L 139.51 70.23 L 139.7 70.29 L 139.91 70.36 L 140.1 70.44 L 140.31 70.51 L 140.54 70.6 L 140.71 70.71 L 140.92 70.84 L 141.05 70.9 L 141.18 70.98 L 141.37 71.1 L 141.54 71.2 L 141.66 71.26 L 141.87 71.41 L 142 71.48 L 142.21 71.6 L 142.4 71.72 L 142.57 71.83 L 142.78 71.97 L 142.89 72.06 L 142.98 72.16 L 143.16 72.27 L 143.27 72.34 L 143.42 72.48 L 143.55 72.6 L 143.74 72.73 L 143.95 72.88 L 144.09 73.02 L 144.22 73.16 L 144.37 73.31 L 144.5 73.5 L 144.62 73.64 L 144.79 73.77 L 144.9 73.85 L 145.05 74.05 L 145.19 74.23 L 145.34 74.41 L 145.51 74.64 L 145.62 74.81 L 145.72 75.01 L 145.79 75.13 L 145.89 75.33 L 145.98 75.48 L 146.1 75.69 L 146.15 75.89 L 146.21 76.04 L 146.36 76.22 L 146.48 76.29 L 146.61 76.43 L 146.74 76.53 L 146.89 76.62 L 147.1 76.71 L 147.25 76.77 L 147.44 76.88 L 147.6 76.98 L 147.82 77.07 L 147.98 77.16 L 148.15 77.25 L 148.36 77.35 L 148.53 77.46 L 148.72 77.57 L 148.87 77.61 L 149.06 77.7 L 149.27 77.79 L 149.4 77.83 L 149.55 77.88 L 149.67 77.94 L 149.82 77.99 L 150.06 78.1 L 150.33 78.16 L 150.54 78.23 L 150.75 78.3 L 150.88 78.35 L 151.03 78.4 L 151.28 78.5 L 151.43 78.55 L 151.6 78.64 L 151.83 78.71 L 151.96 78.74 L 152.09 78.78 L 152.23 78.83 L 152.42 78.91 L 152.64 78.98 L 152.8 79.04 L 152.93 79.1 L 153.06 79.16 L 153.19 79.21 L 153.35 79.24 L 153.52 79.27 L 153.69 79.31 L 153.86 79.36 L 154.03 79.44 L 154.24 79.51 L 154.47 79.62 L 154.56 79.7 L 154.77 79.76 L 154.9 79.79 L 155.11 79.85 L 155.3 79.9 L 155.43 79.9 L 155.59 79.9 L 155.76 79.9 L 155.93 79.9 L 156.08 79.88 L 156.23 79.88 L 156.52 79.88 L 156.78 79.88 L 157.03 79.88 L 157.22 79.84 L 157.46 79.79 L 157.6 79.76 L 157.75 79.76 L 157.92 79.76 L 158.07 79.75 L 158.24 79.75 L 158.39 79.74 L 158.57 79.7 L 158.74 79.67 L 158.91 79.63 L 159.08 79.61 L 159.34 79.61 L 159.59 79.61 L 159.78 79.56 L 159.99 79.49 L 160.12 79.43 L 160.25 79.39 L 160.41 79.37 L 160.56 79.34 L 160.82 79.34 L 161.09 79.34 L 161.34 79.33 L 161.55 79.3 L 161.77 79.24 L 161.91 79.21 L 162.04 79.21 L 162.17 79.21 L 162.3 79.21 L 162.44 79.21 L 162.57 79.21 L 162.72 79.21 L 162.85 79.21 L 162.99 79.21 L 163.12 79.21 L 163.25 79.21 L 163.39 79.21 L 163.52 79.21 L 163.65 79.21 L 163.78 79.21 L 163.94 79.21 L 164.07 79.22 L 164.2 79.22 L 164.34 79.22 L 164.49 79.22 L 164.66 79.21 L 164.83 79.21 L 164.98 79.21 L 165.15 79.21 L 165.28 79.21 L 165.42 79.21 L 165.55 79.21 L 165.68 79.21 L 165.82 79.21 L 165.95 79.21 L 166.08 79.21 L 166.21 79.21 L 166.37 79.21 L 166.5 79.21 L 166.63 79.22 L 166.88 79.27 L 167.07 79.33 L 167.3 79.34 L 167.43 79.34 L 167.56 79.34 L 167.71 79.34 L 167.85 79.34 L 167.98 79.34 L 168.11 79.34 L 168.24 79.34 L 168.38 79.34 L 168.51 79.34 L 168.64 79.34 L 168.78 79.34 L 168.93 79.34 L 169.06 79.36 L 169.31 79.4 L 169.5 79.46 L 169.72 79.48 L 169.86 79.48 L 169.99 79.48 L 170.12 79.48 L 170.28 79.48 L 170.41 79.48 L 170.54 79.48 L 170.67 79.48 L 170.81 79.48 L 170.94 79.48 L 171.07 79.48 L 171.21 79.48 L 171.36 79.49 L 171.49 79.49 L 171.74 79.54 L 171.93 79.6 L 172.15 79.62 L 172.29 79.62 L 172.42 79.62 L 172.55 79.62 L 172.7 79.62 L 172.84 79.62 L 172.97 79.62 L 173.1 79.62 L 173.25 79.62 L 173.39 79.63 L 173.58 79.64 L 173.71 79.68 L 173.96 79.74 L 174.18 79.75 L 174.32 79.75 L 174.45 79.75 L 174.58 79.75 L 174.72 79.75 L 174.87 79.76 L 175.02 79.76 L 175.19 79.76 L 175.36 79.78 L 175.61 79.85 L 175.8 79.9 L 175.93 79.9 L 176.08 79.9 L 176.23 79.9 L 176.39 79.9 L 176.56 79.88 L 176.73 79.88 L 176.88 79.88 L 177.01 79.88 L 177.15 79.88 L 177.28 79.88 L 177.43 79.9 L 177.68 79.94 L 177.87 80 L 178.09 80.02 L 178.23 80.03 L 178.36 80.03 L 178.49 80.03 L 178.63 80.03 L 178.76 80.03 L 178.91 80.03 L 179.04 80.03 L 179.19 80.05 L 179.33 80.09 L 179.59 80.14 L 179.84 80.16 L 179.97 80.16 L 180.11 80.16 L 180.26 80.16 L 180.39 80.16 L 180.52 80.16 L 180.66 80.16 L 180.79 80.16 L 180.92 80.16 L 181.05 80.16 L 181.19 80.16 L 181.34 80.16 L 181.47 80.17 L 181.62 80.18 L 181.76 80.22 L 181.89 80.26 L 182.16 80.3 L 182.31 80.32 L 182.44 80.35 L 182.57 80.39 L 182.84 80.44 L 183.01 80.44 L 183.18 80.45 L 183.43 80.52 L 183.64 80.57 L 183.77 80.57 L 183.92 80.59 L 184.05 80.62 L 184.19 80.65 L 184.43 80.69 L 184.57 80.69 L 184.7 80.69 L 184.83 80.69 L 184.98 80.7 L 185.12 80.72 L 185.32 80.78 L 185.53 80.86 L 185.72 80.92 L 185.93 80.98 L 186.08 80.99 L 186.22 81.02 L 186.35 81.06 L 186.62 81.12 L 186.82 81.2 L 187.03 81.3 L 187.18 81.36 L 187.36 81.46 L 187.56 81.54 L 187.79 81.64 L 187.98 81.73 L 188.25 81.84 L 188.4 81.89 L 188.57 82 L 188.78 82.07 L 188.99 82.14 L 189.16 82.25 L 189.27 82.32 L 189.4 82.45 L 189.54 82.6 L 189.67 82.72 L 189.8 82.83 L 189.99 82.98 L 190.13 83.15 L 190.22 83.28 L 190.35 83.45 L 190.47 83.55 L 190.6 83.73 L 190.7 83.89 L 190.83 84.06 L 190.94 84.22 L 191.08 84.39 L 191.17 84.48 L 191.3 84.63 L 191.44 84.76 L 191.57 84.89 L 191.68 84.99 L 191.78 85.08 L 191.89 85.19 L 192.02 85.35 L 192.19 85.44 L 192.37 85.56 L 192.5 85.66 L 192.65 85.71 L 192.78 85.75 L 192.95 85.81 L 193.07 85.87 L 193.28 85.98 L 193.43 86.05 L 193.64 86.15 L 193.77 86.19 L 193.9 86.22 L 194.04 86.27 L 194.26 86.38 L 194.43 86.49 L 194.68 86.56 L 194.89 86.67 L 195.06 86.77 L 195.21 86.91 L 195.42 87.03 L 195.55 87.1 L 195.69 87.17 L 195.84 87.25 L 195.95 87.34 L 196.1 87.42 L 196.29 87.58 L 196.41 87.68 L 196.58 87.8 L 196.69 87.89 L 196.81 88.11 L 196.86 88.28 L 196.96 88.4 L 197.09 88.53 L 197.22 88.67 L 197.36 88.8 L 197.51 88.92 L 197.7 89.06 L 197.91 89.21 L 198.04 89.34 L 198.17 89.46 L 198.38 89.6 L 198.61 89.75 L 198.78 89.86 L 198.99 89.92 L 199.2 89.99 L 199.41 90.09 L 199.52 90.16 L 199.67 90.32 L 199.79 90.41 L 199.88 90.5 L 200.01 90.58 L 200.15 90.68 L 200.24 90.78 L 200.37 90.92 L 200.49 91.02 L 200.68 91.22 L 200.79 91.38 L 200.89 91.54 L 201.06 91.74 L 201.15 91.86 L 201.27 92.09 L 201.34 92.25 L 201.49 92.43 L 201.59 92.6 L 201.68 92.75 L 201.8 92.97 L 201.85 93.17 L 201.93 93.37 L 202.04 93.64 L 202.1 93.76 L 202.23 93.97 L 202.33 94.18 L 202.4 94.37 L 202.46 94.53 L 202.58 94.75 L 202.63 94.94 L 202.69 95.08 L 202.84 95.27 L 202.94 95.45 L 203.01 95.65 L 203.07 95.78 L 203.18 95.98 L 203.28 96.1 L 203.41 96.33 L 203.47 96.51 L 203.58 96.65 L 203.73 96.83 L 203.89 97.06 L 204 97.16 L 204.15 97.34 L 204.26 97.45 L 204.4 97.65 L 204.53 97.83 L 204.66 97.98 L 204.78 98.07 L 204.87 98.17 L 204.97 98.28 L 205.08 98.38 L 205.23 98.6 L 205.37 98.8 L 205.46 98.94 L 205.57 99.12 L 205.67 99.32 L 205.78 99.49 L 205.88 99.69 L 205.95 99.81 L 206.03 99.96 L 206.16 100.06 L 206.35 100.24 L 206.45 100.39 L 206.6 100.51 L 206.79 100.63 L 206.96 100.72 L 207.13 100.84 L 207.3 100.95 L 207.49 101.06 L 207.68 101.19 L 207.89 101.34 L 208.02 101.47 L 208.14 101.56 L 208.31 101.67 L 208.5 101.82 L 208.63 101.95 L 208.76 102.08 L 208.93 102.2 L 209.14 102.35 L 209.31 102.49 L 209.45 102.62 L 209.58 102.75 L 209.71 102.9 L 209.84 103.03 L 209.98 103.16 L 210.11 103.31 L 210.24 103.45 L 210.39 103.63 L 210.49 103.79 L 210.62 103.95 L 210.79 104.16 L 210.93 104.36 L 211.06 104.53 L 211.19 104.73 L 211.27 104.94 L 211.32 105.14 L 211.4 105.38 L 211.44 105.51 L 211.46 105.65 L 211.5 105.78 L 211.57 106.04 L 211.65 106.27 L 211.7 106.39 L 211.76 106.62 L 211.78 106.76 L 211.78 106.9 L 211.78 107.03 L 211.78 107.16 L 211.78 107.3 L 211.78 107.44 L 211.78 107.57 L 211.78 107.7 L 211.78 107.84 L 211.78 107.98 L 211.76 108.12 L 211.74 108.26 L 211.69 108.46 L 211.63 108.65 L 211.63 108.79 L 211.63 108.94 L 211.61 109.1 L 211.57 109.27 L 211.53 109.44 L 211.5 109.6 L 211.42 109.81 L 211.36 109.99 L 211.36 110.14 L 211.36 110.27 L 211.36 110.4 L 211.36 110.54 L 211.36 110.69 L 211.36 110.84 L 211.34 111.02 L 211.31 111.19 L 211.29 111.36 L 211.25 111.52 L 211.21 111.65 L 211.17 111.78 L 211.15 111.93 L 211.12 112.06 L 211.08 112.19 L 211.04 112.33 L 210.98 112.48 L 210.89 112.65 L 210.81 112.85 L 210.76 113.05 L 210.7 113.25 L 210.68 113.39 L 210.6 113.59 L 210.53 113.81 L 210.39 114 L 210.28 114.12 L 210.19 114.28 L 210.09 114.46 L 210.02 114.58 L 209.84 114.75 L 209.75 114.85 L 209.65 114.95 L 209.54 115.13 L 209.46 115.25 L 209.33 115.38 L 209.18 115.53 L 209.09 115.62 L 208.93 115.79 L 208.78 115.92 L 208.61 116.02 L 208.46 116.11 L 208.31 116.26 L 208.14 116.39 L 207.95 116.5 L 207.76 116.61 L 207.62 116.72 L 207.51 116.79 L 207.36 116.88 L 207.23 116.94 L 207.09 117.02 L 206.94 117.08 L 206.73 117.18 L 206.5 117.32 L 206.39 117.38 L 206.18 117.45 L 205.99 117.51 L 205.78 117.58 L 205.63 117.64 L 205.48 117.74 L 205.29 117.88 L 205.1 117.98 L 204.91 118.05 L 204.66 118.14 L 204.44 118.25 L 204.32 118.32 L 204.19 118.4 L 204.02 118.49 L 203.87 118.56 L 203.71 118.64 L 203.43 118.73 L 203.28 118.79 L 203.03 118.86 L 202.82 118.94 L 202.63 119.03 L 202.4 119.14 L 202.16 119.24 L 201.93 119.3 L 201.74 119.33 L 201.53 119.4 L 201.34 119.46 L 201.17 119.54 L 200.94 119.63 L 200.72 119.7 L 200.58 119.74 L 200.45 119.78 L 200.22 119.84 L 200.01 119.91 L 199.77 119.97 L 199.62 120.02 L 199.46 120.11 L 199.22 120.21 L 199.01 120.24 L 198.8 120.32 L 198.61 120.39 L 198.42 120.45 L 198.23 120.56 L 198.08 120.62 L 197.85 120.72 L 197.66 120.78 L 197.47 120.86 L 197.28 120.95 L 197.09 121.02 L 196.92 121.1 L 196.77 121.22 L 196.58 121.39 L 196.41 121.53 L 196.24 121.63 L 196.12 121.72 L 195.97 121.87 L 195.8 121.96 L 195.61 122.11 L 195.48 122.3 L 195.36 122.41 L 195.17 122.54 L 195.04 122.66 L 194.89 122.8 L 194.68 122.95 L 194.49 123.09 L 194.26 123.22 L 194.07 123.32 L 193.92 123.44 L 193.77 123.58 L 193.56 123.68 L 193.39 123.79 L 193.2 123.89 L 192.97 124.03 L 192.76 124.19 L 192.54 124.29 L 192.4 124.35 L 192.27 124.48 L 192.08 124.63 L 191.89 124.72 L 191.7 124.81 L 191.44 124.9 L 191.25 125 L 191.09 125.09 L 190.92 125.2 L 190.73 125.3 L 190.54 125.39 L 190.35 125.48 L 190.24 125.55 L 190.01 125.68 L 189.88 125.78 L 189.67 125.88 L 189.48 125.94 L 189.33 126.06 L 189.2 126.16 L 189.06 126.26 L 188.95 126.37 L 188.72 126.51 L 188.55 126.62 L 188.38 126.75 L 188.29 126.86 L 188.08 126.99 L 187.91 127.14 L 187.72 127.29 L 187.51 127.46 L 187.34 127.57 L 187.2 127.65 L 187.05 127.8 L 186.86 127.94 L 186.69 128.07 L 186.54 128.19 L 186.41 128.32 L 186.27 128.46 L 186.12 128.6 L 185.97 128.74 L 185.88 128.85 L 185.76 128.96 L 185.65 129.1 L 185.53 129.22 L 185.44 129.32 L 185.34 129.42 L 185.19 129.54 L 185.06 129.68 L 184.91 129.81 L 184.74 129.96 L 184.55 130.14 L 184.34 130.29 L 184.13 130.42 L 183.98 130.53 L 183.81 130.67 L 183.69 130.77 L 183.5 130.91 L 183.29 131.05 L 183.09 131.22 L 182.97 131.31 L 182.78 131.45 L 182.63 131.57 L 182.5 131.7 L 182.36 131.83 L 182.23 131.97 L 182.08 132.11 L 181.95 132.24 L 181.81 132.37 L 181.68 132.51 L 181.59 132.63 L 181.49 132.74 L 181.38 132.89 L 181.26 133.01 L 181.17 133.14 L 181.02 133.32 L 180.88 133.46 L 180.75 133.59 L 180.62 133.73 L 180.49 133.86 L 180.33 133.99 L 180.2 134.13 L 180.07 134.27 L 179.93 134.41 L 179.76 134.58 L 179.67 134.69 L 179.54 134.79 L 179.44 134.91 L 179.33 135.09 L 179.23 135.21 L 179.08 135.31 L 178.95 135.44 L 178.8 135.65 L 178.7 135.76 L 178.53 135.85 L 178.36 136 L 178.25 136.16 L 178.19 136.28 L 178.06 136.42 L 177.92 136.55 L 177.81 136.67 L 177.71 136.85 L 177.64 136.97 L 177.51 137.17 L 177.43 137.3 L 177.32 137.51 L 177.18 137.69 L 177.09 137.86 L 176.99 138.04 L 176.88 138.23 L 176.82 138.36 L 176.75 138.55 L 176.65 138.72 L 176.54 138.94 L 176.42 139.12 L 176.31 139.25 L 176.2 139.44 L 176.08 139.68 L 176.03 139.8 L 175.85 140 L 175.78 140.15 L 175.7 140.27 L 175.65 140.4 L 175.53 140.58 L 175.42 140.76 L 175.36 140.88 L 175.19 141.09 L 175.11 141.23 L 175 141.39 L 174.89 141.57 L 174.81 141.69 L 174.68 141.82 L 174.55 141.95 L 174.41 142.08 L 174.32 142.2 L 174.24 142.32 L 174.09 142.47 L 173.92 142.61 L 173.79 142.77 L 173.62 142.93 L 173.44 143.08 L 173.33 143.16 L 173.24 143.28 L 173.08 143.47 L 172.91 143.62 L 172.76 143.71 L 172.59 143.81 L 172.46 143.91 L 172.31 144.04 L 172.17 144.18 L 171.98 144.33 L 171.81 144.42 L 171.68 144.52 L 171.47 144.63 L 171.26 144.73 L 171.09 144.85 L 170.88 145 L 170.69 145.06 L 170.54 145.12 L 170.37 145.26 L 170.18 145.36 L 169.97 145.44 L 169.72 145.54 L 169.53 145.64 L 169.38 145.73 L 169.17 145.84 L 169.04 145.91 L 168.81 145.98 L 168.61 146.08 L 168.43 146.18 L 168.23 146.28 L 168 146.38 L 167.88 146.44 L 167.68 146.51 L 167.49 146.58 L 167.28 146.66 L 167.14 146.72 L 166.92 146.79 L 166.71 146.88 L 166.5 146.96 L 166.29 147.02 L 166.1 147.09 L 165.89 147.15 L 165.68 147.22 L 165.51 147.29 L 165.32 147.39 L 165.13 147.46 L 164.87 147.57 L 164.73 147.64 L 164.51 147.74 L 164.34 147.82 L 164.15 147.96 L 163.96 148.04 L 163.8 148.1 L 163.61 148.24 L 163.42 148.3 L 163.31 148.4 L 163.14 148.54 L 162.95 148.65 L 162.8 148.74 L 162.65 148.84 L 162.48 148.94 L 162.34 149.03 L 162.19 149.18 L 162.06 149.31 L 161.87 149.45 L 161.72 149.55 L 161.58 149.64 L 161.43 149.79 L 161.26 149.89 L 161.13 149.98 L 160.98 150.11 L 160.79 150.26 L 160.63 150.37 L 160.52 150.45 L 160.43 150.57 L 160.27 150.76 L 160.08 150.91 L 159.95 151 L 159.78 151.1 L 159.63 151.19 L 159.5 151.33 L 159.29 151.47 L 159.1 151.54 L 158.96 151.6 L 158.81 151.73 L 158.62 151.88 L 158.43 151.97 L 158.24 152.05 L 158 152.15 L 157.79 152.25 L 157.65 152.35 L 157.43 152.45 L 157.26 152.51 L 157.14 152.61 L 157.05 152.73 L 156.97 152.85 L 156.82 152.98 L 156.67 153.08 L 156.54 153.22 L 156.35 153.35 L 156.23 153.45 L 156.14 153.57 L 155.98 153.75 L 155.79 153.89 L 155.64 154 L 155.47 154.13 L 155.38 154.24 L 155.17 154.37 L 154.98 154.51 L 154.83 154.64 L 154.64 154.78 L 154.45 154.92 L 154.28 155.04 L 154.07 155.18 L 153.94 155.25 L 153.73 155.35 L 153.54 155.46 L 153.31 155.55 L 153.14 155.65 L 152.95 155.78 L 152.76 155.85 L 152.61 155.91 L 152.4 156.04 L 152.17 156.12 L 151.92 156.2 L 151.77 156.26 L 151.51 156.37 L 151.37 156.43 L 151.15 156.5 L 151.01 156.56 L 150.8 156.63 L 150.59 156.67 L 150.44 156.73 L 150.25 156.86 L 150.04 156.93 L 149.84 157 L 149.59 157.06 L 149.42 157.1 L 149.25 157.17 L 149.06 157.28 L 148.87 157.41 L 148.66 157.54 L 148.49 157.64 L 148.36 157.74 L 148.2 157.83 L 148.07 157.98 L 147.9 158.11 L 147.71 158.22 L 147.54 158.32 L 147.39 158.37 L 147.25 158.52 L 147.1 158.65 L 146.89 158.76 L 146.72 158.85 L 146.55 158.92 L 146.36 159.02 L 146.17 159.13 L 146 159.19 L 145.79 159.3 L 145.58 159.36 L 145.38 159.43 L 145.15 159.49 L 144.96 159.53 L 144.75 159.63 L 144.62 159.69 L 144.37 159.77 L 144.18 159.84 L 143.97 159.9 L 143.76 159.97 L 143.54 160.03 L 143.36 160.08 L 143.21 160.17 L 143.04 160.27 L 142.83 160.38 L 142.62 160.44 L 142.45 160.51 L 142.28 160.61 L 142.17 160.7 L 142 160.85 L 141.81 160.95 L 141.68 161.03 L 141.54 161.11 L 141.39 161.28 L 141.22 161.42 L 141.09 161.51 L 140.95 161.64 L 140.82 161.78 L 140.67 161.91 L 140.52 162.06 L 140.35 162.2 L 140.12 162.37 L 140.02 162.47 L 139.93 162.56 L 139.82 162.74 L 139.68 162.92 L 139.57 163.05 L 139.45 163.21 L 139.38 163.38 L 139.27 163.55 L 139.21 163.67 L 139.06 163.83 L 138.92 164.03 L 138.81 164.21 L 138.71 164.4 L 138.56 164.65 L 138.37 164.8 L 138.26 164.88 L 138.16 165 L 138.09 165.12 L 137.92 165.26 L 137.75 165.37 L 137.54 165.5 L 137.39 165.62 L 137.25 165.76 L 137.1 165.9 L 136.91 166.04 L 136.74 166.14 L 136.61 166.2 L 136.46 166.34 L 136.27 166.48 L 136.08 166.55 L 135.96 166.63 L 135.83 166.78 L 135.7 166.91 L 135.56 167.04 L 135.43 167.17 L 135.3 167.3 L 135.15 167.45 L 135.01 167.58 L 134.88 167.71 L 134.75 167.86 L 134.58 168.02 L 134.48 168.13 L 134.37 168.25 L 134.24 168.46 L 134.08 168.66 L 133.95 168.79 L 133.86 168.9 L 133.74 169.08 L 133.65 169.2 L 133.48 169.31 L 133.31 169.45 L 133.15 169.65 L 133.06 169.75 L 132.85 169.89 L 132.7 169.98 L 132.55 170.11 L 132.34 170.26 L 132.17 170.32 L 132.03 170.41 L 131.84 170.52 L 131.65 170.62 L 131.48 170.73 L 131.33 170.82 L 131.12 170.92 L 130.91 170.99 L 130.72 171.06 L 130.59 171.12 L 130.33 171.21 L 130.19 171.27 L 129.97 171.34 L 129.85 171.4 L 129.64 171.46 L 129.43 171.53 L 129.21 171.59 L 129 171.63 L 128.79 171.7 L 128.54 171.76 L 128.35 171.79 L 128.16 171.87 L 128.01 171.93 L 127.88 171.96 L 127.75 172 L 127.59 172.01 L 127.33 172.02 L 127.14 172.07 L 126.91 172.13 L 126.78 172.14 L 126.51 172.15 L 126.27 172.17 L 126.13 172.2 L 126 172.24 L 125.85 172.26 L 125.56 172.29 L 125.35 172.31 L 125.15 172.37 L 124.96 172.44 L 124.75 172.5 L 124.52 172.57 L 124.39 172.61 L 124.14 172.68 L 123.99 172.75 L 123.78 172.81 L 123.61 172.91 L 123.4 173.04 L 123.21 173.11 L 123.02 173.19 L 122.85 173.28 L 122.7 173.34 L 122.55 173.47 L 122.37 173.62 L 122.24 173.69 L 122.01 173.82 L 121.81 173.97 L 121.63 174.06 L 121.48 174.16 L 121.29 174.32 L 121.14 174.4 L 120.91 174.53 L 120.7 174.64 L 120.38 174.81 L 120.34 174.81 L 120.33 174.82 L 120.31 174.81 L 120.27 174.8 L 120.25 174.78 L 120.23 174.76 L 120.23 174.74 L 120.23 174.71 L 120.23 174.69 L 120.23 174.66 L 120.25 174.64 L 120.27 174.63 L 120.29 174.6 L 120.29 174.6" fill="#00ff00" stroke="#00ff00" stroke-width="15" stroke-miterlimit="10" transform="rotate(50,116.89,121.02)" pointer-events="all" style="fill: rgb(0, 255, 0); stroke: rgb(0, 255, 0);"/></g></g></g></g></g></svg>